<?xml version="1.0" encoding="utf-8"?>
<svg width="1536px" height="1536px" id="svg2" version="1.1" viewBox="0 0 1536 1536" xmlns="http://www.w3.org/2000/svg" xmlns:xlink="http://www.w3.org/1999/xlink">
  <defs id="defs4">
    <linearGradient id="linearGradient4110">
      <stop style="stop-opacity: 1; stop-color: rgb(242, 74, 13);" offset="0" id="stop4112"/>
      <stop style="stop-opacity: 1; stop-color: rgb(240, 222, 30);" offset="1" id="stop4114"/>
    </linearGradient>
    <linearGradient id="linearGradient4116" x1="511.68015" y1="0" x2="511.68015" y2="1461.4401" gradientUnits="userSpaceOnUse" gradientTransform="matrix(1.5, 0, 0, 1.501643, 0, 0)" xlink:href="#linearGradient4110"/>
  </defs>
  <rect style="color: rgb(0, 0, 0); fill: url(#linearGradient4116); fill-opacity: 1; fill-rule: nonzero; stroke: none; stroke-width: 2; marker: none; visibility: visible; display: inline; overflow: visible;" id="rect4108" width="1536" height="1536">
    <title>Background gradient</title>
  </rect>
  <g style="visibility: hidden;" transform="matrix(1.499983, 0, 0, 1.499944, 0.017593, 0.00901)">
    <title>Guides</title>
    <path d="M 352.20446 -0.00001 L 671.79554 -0.00001 C 773.21114 -0.00001 823.91893 -0.00001 878.50394 17.25958 C 938.10142 38.95131 985.04875 85.89857 1006.74048 145.49612 C 1024 200.08092 1024 250.78875 1024 352.20441 L 1024 671.79557 C 1024 773.21123 1024 823.91906 1006.74048 878.50386 C 985.04875 938.10144 938.10142 985.04863 878.50394 1006.7404 C 823.91893 1023.99999 773.21114 1023.99999 671.79554 1023.99999 L 352.20446 1023.99999 C 250.78886 1023.99999 200.08107 1023.99999 145.49606 1006.7404 C 85.89858 985.04863 38.95125 938.10144 17.25952 878.50386 C 0 823.91906 0 773.21123 0 671.79557 L 0 352.20441 C 0 250.78875 0 200.08092 17.25952 145.49616 C 38.95125 85.89861 85.89858 38.95131 145.49606 17.25958 C 200.08107 -0.00001 250.78886 -0.00001 352.20446 -0.00001 L 352.20446 -0.00001" id="path5" style="fill: none; stroke: rgb(0, 0, 0); stroke-opacity: 1;">
      <title>Outline</title>
    </path>
    <g id="layer6" style="display: inline;">
      <title>Corners</title>
      <path style="color: rgb(0, 0, 0); fill: rgb(255, 255, 255); fill-opacity: 1; fill-rule: nonzero; stroke: none; stroke-width: 2; marker: none; display: inline; overflow: visible;" d="m -0.03515625,708.40625 c 0.05564213,38.75762 0.61632351,71.02215 3.48917125,100.18549 0.8757813,8.89038 2.0231286,17.50673 3.364698,25.91301 2.7291509,17.10087 6.251639,30.63186 10.624705,44.6288 0.983104,3.14664 2.343873,6.00913 3.546782,8.89844 4.954414,11.90016 10.441772,22.62502 16.75229,32.23106 7.482354,11.38984 16.590926,23.44234 26.690428,33.79613 11.282296,11.56636 22.163363,20.60638 34.238258,28.7856 7.753914,5.2523 15.167714,9.80978 23.655414,13.91931 3.34329,1.61873 6.78353,3.25751 10.45545,4.87471 6.01057,2.6472 12.64725,5.2405 20.38236,7.4312 16.33865,4.6274 37.83594,9.5058 66.67436,11.7859 26.04947,2.0596 58.07248,3.2184 99.20801,3.1754 l -319.08192625,0 z" id="path4146"/>
      <path style="color: rgb(0, 0, 0); fill: rgb(255, 255, 255); fill-opacity: 1; fill-rule: nonzero; stroke: none; stroke-width: 2; marker: none; display: inline; overflow: visible;" d="m 1024,708.375 c -0.028,33.52476 -0.3641,57.51886 -2.1872,86.13032 -2.1429,33.63123 -7.6767,62.03085 -16.1313,85.82727 -5.1582,14.5187 -11.40374,27.32387 -18.62968,38.55822 -10.39312,16.15845 -22.65083,31.16786 -36.89519,44.46448 -6.86448,6.40775 -13.96935,11.81612 -21.91877,17.50161 -10.37402,7.41958 -20.2254,13.06198 -32.1818,18.6383 -10.69022,4.9858 -23.165,9.4996 -39.90567,13.451 -11.58454,2.7344 -25.21186,5.3376 -41.70422,7.0737 -27.23282,2.8667 -62.17789,3.4121 -108.25867,3.9801 L 1024,1024 z" id="path4146-5"/>
      <path style="color: rgb(0, 0, 0); fill: rgb(255, 255, 255); fill-opacity: 1; fill-rule: nonzero; stroke: none; stroke-width: 2; marker: none; display: inline; overflow: visible;" d="m 1023.9571,318.26274 c 0.1837,-39.14081 -0.2997,-73.55855 -3.476,-103.94061 -1.4113,-13.49969 -3.8539,-26.31006 -5.9548,-38.18792 -3.6187,-20.45841 -10.1174,-38.44655 -17.2973,-52.70888 -2.12747,-4.22606 -3.90726,-7.55456 -5.77779,-10.81658 -1.49793,-2.61224 -3.05404,-5.18185 -4.89348,-8.13563 -1.96035,-3.14791 -3.87346,-6.195884 -5.993,-9.197124 C 974.88453,87.232938 968.40279,79.35023 961.65509,72.082687 951.58996,61.242143 940.4011,51.100793 927.77306,42.698049 909.73264,30.693887 894.47219,21.390417 866.08729,13.614807 853.18652,10.080839 837.40303,6.7460486 817.42751,4.3881848 790.09127,1.1614792 754.65731,0.08073128 706.1875,0 L 1024,0 z" id="path4146-5-3"/>
      <path style="color: rgb(0, 0, 0); fill: rgb(255, 255, 255); fill-opacity: 1; fill-rule: nonzero; stroke: none; stroke-width: 2; marker: none; display: inline; overflow: visible;" d="M 0,318.48 C 0.04438432,264.21497 1.9515494,215.42652 8.7981727,178.4577 14.754939,146.29372 24.640519,123.97857 37.889606,103.37989 53.29125,79.434582 73.01483,58.195063 97.250401,42.030991 111.80438,32.324119 124.48551,25.310001 143.39137,18.055461 153.25339,14.271217 164.74156,11.469151 178.08885,8.8727346 208.3231,2.9913388 250.69975,-0.29260813 319.08193,0 L 0,0 z" id="path4146-5-3-7"/>
    </g>
    <g id="layer2" style="display: inline;" transform="matrix(1, 0, 0, 1, 0, -2.205444)">
      <title>Grid</title>
      <path style="color: rgb(0, 0, 0); fill: none; stroke: rgb(0, 0, 0); stroke-width: 2; stroke-linecap: butt; stroke-linejoin: miter; stroke-miterlimit: 4; stroke-opacity: 1; stroke-dasharray: none; stroke-dashoffset: 0; marker: none; display: inline; overflow: visible;" d="m 0.99801512,321.03518 0,386.27669" id="path4024"/>
      <path style="color: rgb(0, 0, 0); fill: none; stroke: rgb(0, 0, 0); stroke-width: 1.00571; stroke-linecap: butt; stroke-linejoin: miter; stroke-miterlimit: 4; stroke-opacity: 1; stroke-dasharray: none; stroke-dashoffset: 0; marker: none; display: inline; overflow: visible;" id="path3129" d="m 600.32144,298.86218 a 138,138 0 1 1 -276,0 138,138 0 1 1 276,0 z" transform="matrix(1.988799,0,0,1.988471,-407.91018,-80.585593)"/>
      <path style="color: rgb(0, 0, 0); fill: none; stroke: rgb(0, 0, 0); stroke-width: 0.620861; stroke-linecap: butt; stroke-linejoin: miter; stroke-miterlimit: 4; stroke-opacity: 1; stroke-dasharray: none; stroke-dashoffset: 0; marker: none; display: inline; overflow: visible;" id="path3129-9" d="m 600.32144,298.86218 a 138,138 0 1 1 -276,0 138,138 0 1 1 276,0 z" transform="matrix(3.2215081,0,0,3.2211587,-977.38931,-448.55899)"/>
      <path style="color: rgb(0, 0, 0); fill: none; stroke: rgb(0, 0, 0); stroke-width: 2; stroke-linecap: butt; stroke-linejoin: miter; stroke-miterlimit: 4; stroke-opacity: 1; stroke-dasharray: none; stroke-dashoffset: 0; marker: none; display: inline; overflow: visible;" d="M 67.351921,69.489974 956.5625,958.70544" id="path4011"/>
      <path style="color: rgb(0, 0, 0); fill: none; stroke: rgb(0, 0, 0); stroke-width: 2; stroke-linecap: butt; stroke-linejoin: miter; stroke-miterlimit: 4; stroke-opacity: 1; stroke-dasharray: none; stroke-dashoffset: 0; marker: none; display: inline; overflow: visible;" d="m 0.99801467,707.31189 1022.00298533,0" id="path4028"/>
      <path style="color: rgb(0, 0, 0); fill: none; stroke: rgb(0, 0, 0); stroke-width: 2; stroke-linecap: butt; stroke-linejoin: miter; stroke-miterlimit: 4; stroke-opacity: 1; stroke-dasharray: none; stroke-dashoffset: 0; marker: none; display: inline; overflow: visible;" d="m 0.99801467,513.69318 1022.00298533,0" id="path4030"/>
      <path style="color: rgb(0, 0, 0); fill: none; stroke: rgb(0, 0, 0); stroke-width: 2; stroke-linecap: butt; stroke-linejoin: miter; stroke-miterlimit: 4; stroke-opacity: 1; stroke-dasharray: none; stroke-dashoffset: 0; marker: none; display: inline; overflow: visible;" d="m 0.99801467,321.0352 1022.00298533,0" id="path4032"/>
      <path style="color: rgb(0, 0, 0); fill: none; stroke: rgb(0, 0, 0); stroke-width: 2; stroke-linecap: butt; stroke-linejoin: miter; stroke-miterlimit: 4; stroke-opacity: 1; stroke-dasharray: none; stroke-dashoffset: 0; marker: none; display: inline; overflow: visible;" d="m 319.08193,1026.2054 0,-1023.9999557" id="path4034"/>
      <path style="color: rgb(0, 0, 0); fill: none; stroke: rgb(0, 0, 0); stroke-width: 2; stroke-linecap: butt; stroke-linejoin: miter; stroke-miterlimit: 4; stroke-opacity: 1; stroke-dasharray: none; stroke-dashoffset: 0; marker: none; display: inline; overflow: visible;" d="m 511.68014,2.2054443 0,1023.9999557" id="path4036"/>
      <path style="color: rgb(0, 0, 0); fill: none; stroke: rgb(0, 0, 0); stroke-width: 2; stroke-linecap: butt; stroke-linejoin: miter; stroke-miterlimit: 4; stroke-opacity: 1; stroke-dasharray: none; stroke-dashoffset: 0; marker: none; display: inline; overflow: visible;" d="m 706.1875,1026.2054 0,-1023.9999557" id="path4038"/>
      <path style="color: rgb(0, 0, 0); fill: none; stroke: rgb(0, 0, 0); stroke-width: 2; stroke-linecap: butt; stroke-linejoin: miter; stroke-miterlimit: 4; stroke-opacity: 1; stroke-dasharray: none; stroke-dashoffset: 0; marker: none; display: inline; overflow: visible;" d="M 67.351921,958.70544 956.5625,69.489974" id="path4001"/>
      <path style="color: rgb(0, 0, 0); fill: none; stroke: rgb(0, 0, 0); stroke-width: 2; stroke-linecap: butt; stroke-linejoin: miter; stroke-miterlimit: 4; stroke-opacity: 1; stroke-dasharray: none; stroke-dashoffset: 0; marker: none; display: inline; overflow: visible;" d="m 956.5625,69.489974 0,889.215466" id="path4003"/>
      <path style="color: rgb(0, 0, 0); fill: none; stroke: rgb(0, 0, 0); stroke-width: 2; stroke-linecap: butt; stroke-linejoin: miter; stroke-miterlimit: 4; stroke-opacity: 1; stroke-dasharray: none; stroke-dashoffset: 0; marker: none; display: inline; overflow: visible;" d="m 67.351921,69.489974 889.210579,0" id="path4009"/>
      <path style="color: rgb(0, 0, 0); fill: none; stroke: rgb(0, 0, 0); stroke-width: 2; stroke-linecap: butt; stroke-linejoin: miter; stroke-miterlimit: 4; stroke-opacity: 1; stroke-dasharray: none; stroke-dashoffset: 0; marker: none; display: inline; overflow: visible;" d="m 67.351921,958.70544 0,-889.215466" id="path4007"/>
      <path style="color: rgb(0, 0, 0); fill: none; stroke: rgb(0, 0, 0); stroke-width: 2; stroke-linecap: butt; stroke-linejoin: miter; stroke-miterlimit: 4; stroke-opacity: 1; stroke-dasharray: none; stroke-dashoffset: 0; marker: none; display: inline; overflow: visible;" d="m 956.5625,958.70544 -889.210579,-3e-5" id="path4005"/>
      <path style="color: rgb(0, 0, 0); fill: none; stroke: rgb(0, 0, 0); stroke-width: 1.42908; stroke-linecap: butt; stroke-linejoin: miter; stroke-miterlimit: 4; stroke-opacity: 1; stroke-dasharray: none; stroke-dashoffset: 0; marker: none; display: inline; overflow: visible;" id="path3129-7" d="m 600.32144,298.86218 a 138,138 0 1 1 -276,0 138,138 0 1 1 276,0 z" transform="matrix(1.4025564,0,0,1.3964479,-135.79717,96.569794)"/>
    </g>
  </g>
  <path d="M 674.61444 106.30963 C 669.53226 106.97004 649.65019 111.03594 630.43342 115.33921 C 537.4266 136.17086 460.18375 171.93009 379.35258 231.57645 C 322.69098 273.38887 273.39083 324.96127 229.58559 388.25053 C 220.54857 401.30644 210.95096 413.11764 208.25587 414.49932 C 205.56386 415.87795 195.54428 417.94438 185.99288 419.08866 C 176.44148 420.22993 166.67139 422.7985 164.28123 424.79493 C 161.89106 426.79135 157.35715 435.83616 154.2062 444.89313 C 147.86119 463.14403 147.5809 462.5171 167.95271 475.86518 L 175.33264 480.70104 L 160.78223 519.99357 C 142.41865 569.58172 136.16604 591.5181 126.7132 639.53284 C 110.61041 721.33776 111.11863 810.46798 128.18857 898.04612 C 155.00087 1035.60194 216.98797 1151.59571 313.14574 1244.1497 C 369.4254 1298.32111 419.55101 1333.48687 489.80819 1368.08963 C 558.01709 1401.68199 622.67772 1419.60117 705.74505 1427.92773 C 722.86427 1429.64418 744.76997 1431.9632 754.41993 1433.08315 C 786.82263 1436.84776 891.4476 1423.97749 947.20365 1409.36947 C 1025.27505 1388.91214 1081.89352 1362.17338 1145.87036 1315.53728 C 1252.93478 1237.49697 1337.81937 1104.41485 1382.68109 944.26833 C 1403.20998 870.98476 1415.39488 793.57746 1415.36099 736.63357 C 1415.33019 676.77416 1399.81263 588.37128 1379.63487 533.10731 C 1373.17897 515.41944 1372.30422 509.87144 1375.03935 503.93692 C 1380.54042 492.00704 1379.02501 487.70681 1367.66558 483.02006 C 1357.99714 479.0272 1347.61718 463.96269 1347.61718 453.91967 C 1347.61718 452.44974 1367.6009 451.24762 1392.02613 451.24762 C 1439.49977 451.24762 1446.18052 450.21288 1446.18052 442.85105 C 1446.18052 438.72732 1439.81394 438.35909 1394.50869 439.87466 C 1365.33394 440.84854 1340.64691 440.38899 1337.80397 438.81862 C 1335.03496 437.28783 1327.10677 427.17178 1320.1827 416.34054 C 1292.50796 373.04297 1240.07227 316.77774 1195.03499 282.05326 C 1156.44128 252.29855 1092.23343 213.86728 1081.11426 213.86728 C 1078.41916 213.86728 1060.0063 206.48109 1040.19815 197.45456 C 1002.44532 180.24752 962.15756 166.50686 940.18409 163.34787 L 927.18297 161.47926 L 934.69843 167.13074 C 938.83193 170.23799 953.38542 179.06671 967.03952 186.7481 C 984.38667 196.50808 993.40213 203.67818 996.96889 210.54395 C 999.77795 215.95196 1004.60755 223.36249 1007.70305 227.01145 C 1011.42074 231.3969 1010.21334 230.89475 1004.13629 225.52326 C 994.29228 216.82235 966.77463 203.8486 949.85254 199.92574 C 939.22002 197.46369 910.68286 195.96636 848.64032 194.61208 C 829.15866 194.18906 805.41722 192.73129 795.88121 191.37701 C 785.41194 189.88882 777.82872 190.05316 776.74145 191.79395 C 775.73733 193.39779 795.69025 199.7401 821.80029 206.11285 C 921.24453 230.38348 1011.02649 271.07899 1084.26828 325.08301 C 1144.03462 369.15358 1211.91396 440.46811 1202.08226 448.86164 C 1201.66029 449.2238 1136.86106 450.4807 1058.0874 451.65238 C 979.31373 452.82712 906.72492 454.72311 896.77927 455.86437 C 883.95679 457.33734 879.30583 456.96605 880.79044 454.59529 C 881.9424 452.75407 887.04306 451.24762 892.12523 451.24762 C 897.50001 451.24762 900.57087 449.9755 899.46204 448.20429 C 898.26388 446.28698 863.15685 445.13355 804.56711 445.0879 C 743.70425 445.03921 706.78612 443.78232 697.71522 441.44808 C 688.19461 439.00123 641.41707 437.83258 548.33017 437.71999 C 425.44633 437.56782 391.14937 436.1831 310.7371 428.13346 C 302.03272 427.26003 292.53676 424.83449 289.6353 422.73763 C 284.71946 419.18302 284.93814 417.32658 292.90329 395.15891 C 302.97215 367.1389 314.61187 352.20219 359.48282 309.73242 C 377.1657 292.99406 396.54572 271.76678 402.54576 262.56068 C 429.39811 221.36606 491.20348 177.84938 566.39806 147.19079 C 594.36848 135.7874 664.56714 119.64859 686.51288 119.5725 C 700.53967 119.52685 778.839 110.22336 777.06794 108.81431 C 775.32152 107.4235 683.30957 105.17447 674.61444 106.30963 M 325.83577 441.21678 C 322.04724 441.93805 315.117 441.95631 310.43525 441.25938 C 305.75349 440.55941 308.85207 439.96901 317.32236 439.94466 C 325.79264 439.92336 329.62429 440.49551 325.83577 441.21678 M 330.4128 462.59318 C 324.06163 463.25054 313.66627 463.25054 307.31202 462.59318 C 300.96085 461.93886 306.15698 461.40019 318.86241 461.40019 C 331.56784 461.40019 336.76706 461.93886 330.4128 462.59318 M 1208.24247 462.61449 C 1200.19416 463.24141 1187.0298 463.24141 1178.98148 462.61449 C 1170.93317 461.98756 1177.51843 461.47324 1193.61198 461.47324 C 1209.70552 461.47324 1216.29079 461.98756 1208.24247 462.61449 M 1365.26002 462.57492 C 1370.72721 463.2475 1380.42953 463.25663 1386.82075 462.59927 C 1393.20889 461.93886 1388.73657 461.39106 1376.87817 461.37585 C 1365.01977 461.36368 1359.78976 461.90234 1365.26002 462.57492 M 1222.87297 481.681 C 1226.82166 483.35787 1217.9756 484.22827 1198.23213 484.10958 C 1176.93013 483.98176 1170.75453 483.2331 1178.21146 481.681 C 1193.21465 478.56158 1215.52384 478.56158 1222.87297 481.681 M 1398.4389 481.681 C 1397.22226 483.62873 1406.31165 484.64825 1423.66803 484.5113 C 1441.6928 484.36826 1448.73392 483.41874 1444.64046 481.681 C 1435.98537 478.00769 1400.73666 478.00769 1398.4389 481.681 M 1238.27349 509.07104 C 1237.22625 510.74487 1226.66766 512.11438 1214.80926 512.11438 C 1201.21984 512.11438 1193.95079 513.24041 1195.15203 515.15771 C 1196.35635 517.08415 1188.78546 518.17062 1174.54305 518.12192 L 1152.03057 518.04279 L 1164.35099 512.28175 C 1173.80999 507.85978 1184.04826 506.46289 1208.4242 506.27421 C 1228.86993 506.11595 1239.49937 507.11112 1238.27349 509.07104 M 1257.51182 533.32035 C 1264.51906 543.53988 1283.61262 598.60298 1287.29951 619.22768 C 1288.99664 628.71073 1288.2913 631.01453 1282.80255 633.91788 C 1279.22347 635.81084 1274.07662 636.51993 1271.36921 635.49433 C 1268.6618 634.46568 1253.17503 635.01348 1236.95828 636.71167 C 1220.74154 638.4068 1193.88303 640.2815 1177.27203 640.87495 C 1138.7122 642.25358 1138.62904 642.14402 1146.94224 599.47947 C 1150.27183 582.39418 1153.89096 563.2181 1154.98747 556.86361 C 1157.30063 543.47293 1160.59942 541.66214 1192.07193 536.53107 C 1203.93033 534.59551 1220.56289 530.49309 1229.03318 527.40715 C 1237.50346 524.32424 1245.81974 522.12391 1247.5138 522.51954 C 1249.20786 522.91213 1253.70789 527.77539 1257.51182 533.32035 M 1051.92719 533.41774 C 1042.7762 538.36924 1034.54616 539.26703 997.43707 539.37659 C 971.47487 539.45268 952.9542 538.26881 951.82381 536.46108 C 950.61949 534.53465 958.40599 533.41774 973.02108 533.41774 C 985.72651 533.41774 996.97813 532.04824 998.02537 530.3744 C 999.1034 528.65187 1013.56757 527.38584 1031.31821 527.45888 L 1062.70755 527.5867 L 1051.92719 533.41774 M 1192.07193 528.871 C 1185.08933 531.27523 1150.97102 532.06954 1152.39403 529.79617 C 1153.24105 528.43884 1163.20827 527.44062 1174.54305 527.57149 C 1185.87784 527.70235 1193.76598 528.28971 1192.07193 528.871 M 271.7399 542.63905 C 283.07468 545.04024 287.71948 547.83707 291.66201 554.62676 C 295.25033 560.81082 299.89821 563.95155 307.06253 565.03802 C 355.87602 572.4455 371.75088 573.60501 398.97284 571.75467 C 415.61464 570.61949 432.81086 570.58298 437.18769 571.6664 C 447.73397 574.28368 447.76785 583.8428 437.24313 586.45399 C 429.10242 588.47476 420.50585 603.35364 420.50585 615.43265 C 420.50585 624.3618 410.29222 625.64304 382.00454 620.26851 C 353.41502 614.8392 302.55326 614.09662 288.58807 618.9051 C 281.27282 621.42498 278.20504 624.90047 275.8272 633.36095 C 269.21421 656.87986 273.64956 667.47981 291.99158 672.00221 C 302.49166 674.59208 306.03378 680.94658 304.35512 694.16988 C 303.6467 699.72702 304.81098 706.34931 306.93933 708.88137 C 312.08618 715.01066 350.35031 733.9037 368.25188 739.1565 C 377.89877 741.9868 383.6216 745.72098 385.90396 750.67249 C 388.18939 755.62096 394.40812 759.67772 405.08993 763.18365 C 424.98432 769.71465 426.67837 773.86272 426.61985 815.88513 C 426.53669 876.198 436.9228 1004.69989 447.0317 1068.42129 C 449.49887 1083.98188 455.49891 1108.63292 460.36547 1123.20138 C 465.23204 1137.77288 470.16944 1154.48688 471.33988 1160.34531 C 472.50724 1166.20373 476.0432 1175.42809 479.19723 1180.84523 C 482.34818 1186.25933 486.6018 1198.7005 488.65007 1208.49092 C 492.25687 1225.75272 492.54024 1226.12097 498.01975 1220.70687 C 501.12757 1217.63615 505.0547 1215.12539 506.74876 1215.12539 C 508.44282 1215.12539 509.86583 1212.72724 509.90895 1209.79955 C 509.95515 1206.87186 512.53936 1198.9957 515.65334 1192.30035 L 521.31765 1180.127 L 523.24888 1193.82203 C 524.31152 1201.35428 525.67908 1211.62556 526.28278 1216.64705 C 526.88956 1221.66856 527.59491 1214.01153 527.84747 1199.62871 C 528.59594 1157.33241 532.23662 1090.16898 533.70275 1091.62066 C 534.44814 1092.35714 536.37936 1114.62524 537.99334 1141.10837 C 539.60731 1167.58846 541.89891 1205.23454 543.08783 1224.76668 C 544.27675 1244.29578 546.39278 1261.40238 547.79115 1262.78101 C 550.74189 1265.69349 548.21004 1159.14623 543.69769 1090.34854 C 538.5416 1011.80608 536.67505 907.74828 540.41738 907.74828 C 542.48413 907.74828 543.72849 917.09741 543.75621 932.85582 C 543.79009 950.59543 544.70796 956.62429 546.87944 953.39834 C 548.70902 950.68064 549.76858 924.06362 549.49445 887.58008 C 549.24496 853.89033 550.01498 824.76559 551.20698 822.85741 C 552.40206 820.94924 554.49962 808.39243 555.87026 794.9561 C 557.24399 781.51672 559.33846 769.5564 560.52738 768.37558 C 561.7163 767.19781 608.66325 764.49837 664.85359 762.38021 C 721.04392 760.26205 805.13385 757.06959 851.72042 755.28619 C 898.307 753.50584 950.96446 751.81374 968.73666 751.53071 L 1001.05003 751.01639 L 1004.817 787.53644 C 1006.88683 807.62247 1009.94845 856.92454 1011.62095 897.09659 C 1015.95465 1001.28222 1028.71244 1094.58487 1043.01645 1126.71947 C 1046.33372 1134.16652 1050.28241 1148.8841 1051.79166 1159.42014 C 1053.40564 1170.66832 1057.14489 1181.85258 1060.85333 1186.50889 C 1064.32461 1190.86999 1068.03921 1199.04744 1069.10801 1204.67761 C 1070.17989 1210.30778 1071.94787 1214.79976 1073.0413 1214.65975 C 1078.94586 1213.90501 1080.6276 1215.5758 1076.56802 1218.16873 C 1074.02694 1219.79082 1073.33391 1221.11773 1075.02797 1221.11773 C 1080.01774 1221.11773 1086.15023 1216.36403 1087.08042 1211.77771 C 1088.71287 1203.7007 1095.4891 1189.25702 1099.90289 1184.43333 C 1103.89163 1180.08135 1107.39678 1162.22913 1112.54364 1120.07891 C 1115.86091 1092.91103 1119.68948 1108.98594 1119.68948 1150.07404 C 1119.68948 1190.20653 1116.76954 1205.28932 1109.81775 1201.04386 C 1107.89576 1199.87218 1107.27974 1200.34694 1108.4009 1202.14251 C 1112.06006 1207.98876 1069.65935 1243.50756 1039.51437 1259.85028 C 993.54382 1284.77218 934.34421 1307.97458 897.92198 1315.3425 C 791.41198 1336.89542 700.05918 1335.95198 613.01235 1312.39959 C 559.50478 1297.92243 515.85971 1278.90462 465.96818 1248.33125 C 326.19614 1162.6765 221.87917 1001.10267 196.95805 831.66484 C 190.94877 790.8202 192.34097 719.51176 200.00427 675.4564 C 207.57825 631.93363 230.84536 553.5129 239.10927 543.67988 C 243.29514 538.69184 251.84551 538.42098 271.7399 542.63905 M 1033.27716 564.61195 C 1031.70323 570.14169 1024.80071 579.31128 1017.63023 585.40708 C 1005.23589 595.94311 1004.73999 597.07219 1002.89501 618.88379 C 1001.84778 631.29757 999.89499 643.16963 998.55515 645.2604 C 994.17524 652.10791 886.05742 649.43586 833.77574 641.18842 C 825.82599 639.93456 822.5888 637.33859 819.31465 629.59634 C 815.45836 620.4785 815.87725 617.30734 824.20893 592.65326 C 829.22026 577.82004 835.0355 564.60586 837.12997 563.29114 C 839.22444 561.97642 859.65169 560.71952 882.52146 560.49736 C 905.39124 560.27824 933.11217 559.09437 944.12355 557.874 C 955.13492 556.65058 980.33325 555.43933 1000.11984 555.18369 L 1036.09545 554.7211 L 1033.27716 564.61195 M 704.40828 592.72022 C 714.21225 621.6654 726.87456 635.54302 740.95064 632.76141 C 747.08313 631.54712 750.05851 632.45099 751.41067 635.93257 C 753.09857 640.28455 750.42812 640.52497 726.27702 638.20898 C 711.41552 636.78166 670.5487 635.56128 635.46015 635.49433 C 556.21215 635.33912 558.83332 636.69036 566.18861 599.7899 C 569.40424 583.66933 573.16505 573.16677 576.62092 570.67123 C 580.6651 567.74963 596.41059 566.97358 639.10084 567.59137 L 696.17516 568.41612 L 704.40828 592.72022 M 736.36436 618.91423 C 741.49274 628.71378 740.94756 633.80832 735.49269 627.07342 C 731.64564 622.32581 727.46902 609.50118 729.76986 609.50118 C 730.68773 609.50118 733.65387 613.73751 736.36436 618.91423 M 413.61257 638.98199 C 410.66799 639.74283 405.12381 639.77022 401.29216 639.04286 C 397.46051 638.3155 399.86915 637.69162 406.64538 637.65815 C 413.42161 637.62466 416.55715 638.22116 413.61257 638.98199 M 1290.24716 651.68488 C 1294.00797 655.79035 1295.89916 665.19426 1297.1312 685.92243 C 1298.06447 701.63823 1300.2575 719.08568 1302.00392 724.69455 C 1307.68979 742.95763 1304.87458 790.17501 1295.37554 835.88899 C 1290.46585 859.51138 1285.54385 885.53191 1284.43809 893.71544 C 1279.5746 929.73031 1231.67899 1041.00691 1196.51652 1097.98732 C 1171.83256 1137.99199 1126.99241 1194.40635 1132.70908 1178.26753 C 1133.53147 1175.94242 1132.8292 1170.61658 1131.14439 1166.43199 C 1124.22955 1149.23408 1116.73258 932.50583 1122.38457 913.1502 L 1125.29527 903.18327 L 1125.94825 915.35662 C 1126.30554 922.05196 1127.68543 951.49626 1129.01295 980.78838 C 1130.91954 1022.91427 1131.19367 1013.13602 1130.30968 934.00011 C 1129.38873 851.24567 1130.02631 830.46576 1133.99348 813.78827 C 1137.62185 798.52898 1138.30563 785.4761 1136.7933 760.1464 C 1134.87439 727.97527 1135.0592 726.51143 1141.50586 722.59162 C 1145.19582 720.34867 1160.69491 717.35707 1175.95066 715.94191 C 1191.20334 714.52981 1204.83588 712.23209 1206.24657 710.83824 C 1207.65417 709.44743 1193.04832 708.33054 1173.78843 708.35792 C 1154.52546 708.38531 1139.40831 707.38101 1140.19065 706.12716 C 1140.973 704.8733 1160.59018 703.67422 1183.78337 703.46727 C 1221.46228 703.12946 1277.48013 699.46224 1263.68435 698.23578 C 1260.72129 697.97405 1258.29416 696.3063 1258.29416 694.53508 C 1258.29416 692.76386 1257.15145 692.00911 1255.75616 692.86125 C 1254.36087 693.71338 1253.3198 691.47349 1253.44608 687.88234 C 1253.68017 681.14743 1249.87316 679.65316 1220.56289 674.9786 C 1214.21171 673.96516 1209.0125 671.82874 1209.0125 670.23098 C 1209.0125 668.63323 1214.21171 667.14199 1220.56289 666.91679 C 1242.52403 666.14378 1203.91185 661.7979 1172.05125 661.45705 C 1138.32103 661.09793 1126.02217 656.94681 1149.32316 653.79088 C 1171.36439 650.80232 1224.93048 647.21726 1257.04672 646.57816 C 1280.89905 646.10341 1285.8303 646.86119 1290.24716 651.68488 M 342.73322 651.30142 C 334.68799 651.92835 321.51746 651.92835 313.47223 651.30142 C 305.427 650.6745 312.00918 650.16017 328.10272 650.16017 C 344.19627 650.16017 350.77845 650.6745 342.73322 651.30142 M 967.99435 657.33028 C 963.33723 658.0272 955.7109 658.0272 951.05378 657.33028 C 946.39666 656.63336 950.20675 656.06425 959.52407 656.06425 C 968.84138 656.06425 972.65147 656.63336 967.99435 657.33028 M 1242.89364 658.19458 C 1242.89364 659.86842 1246.2756 661.23792 1250.41218 661.23792 C 1254.54876 661.23792 1258.78698 659.86842 1259.83422 658.19458 C 1260.94613 656.42032 1257.81367 655.15125 1252.31568 655.15125 C 1247.13495 655.15125 1242.89364 656.52075 1242.89364 658.19458 M 1180.62626 678.68842 C 1172.63339 679.3123 1158.77292 679.31839 1149.82522 678.7006 C 1140.87444 678.08584 1147.41042 677.57456 1164.35099 677.56543 C 1181.29156 677.55935 1188.61605 678.0615 1180.62626 678.68842 M 1263.68435 678.60321 C 1267.49752 679.32752 1273.73165 679.32752 1277.54482 678.60321 C 1281.35798 677.87585 1278.23784 677.2824 1270.61458 677.2824 C 1262.99132 677.2824 1259.87118 677.87585 1263.68435 678.60321 M 995.78613 724.04024 C 1002.35599 725.78103 1002.45148 726.14927 997.32618 729.98997 C 993.30357 733.00591 980.49957 734.00717 948.7437 733.785 C 909.34301 733.51415 907.48263 733.2646 927.18297 730.8908 C 939.04137 729.46346 952.90184 727.01966 957.98401 725.46148 C 968.94918 722.09859 986.02836 721.45644 995.78613 724.04024 M 462.41374 1019.34139 C 463.039 1045.84277 464.154 1079.16428 464.89323 1093.39188 C 466.11295 1116.88645 465.97434 1117.72641 463.38398 1102.52189 C 461.8162 1093.3158 459.14883 1079.17341 457.45786 1071.09639 C 453.04099 1049.96953 453.35208 963.3318 457.83055 967.75682 C 459.9743 969.87498 461.70532 989.35538 462.41374 1019.34139 M 1044.43022 1028.69052 C 1044.85835 1056.74401 1045.95487 1089.28337 1046.86658 1101.00022 L 1048.52367 1122.30359 L 1043.9682 1102.52189 C 1036.01537 1067.99523 1034.33363 968.47808 1041.82753 975.88252 C 1042.83164 976.87161 1044.00208 1000.63703 1044.43022 1028.69052 M 482.67467 1098.70555 C 487.83076 1144.78169 488.9088 1166.52024 486.44164 1174.79204 C 484.35024 1181.80997 483.54326 1179.71311 481.48267 1161.86698 C 477.54629 1127.80899 475.08221 1070.35686 477.66642 1072.83718 C 478.96622 1074.08799 481.22086 1085.72876 482.67467 1098.70555 M 1062.37798 1079.94641 C 1065.09463 1086.94304 1064.67574 1170.91178 1061.93753 1168.21538 C 1059.08535 1165.40639 1055.7804 1075.11663 1058.52785 1075.12577 C 1059.61821 1075.12881 1061.34923 1077.29871 1062.37798 1079.94641 M 1091.92234 1133.53655 C 1091.95006 1158.08411 1090.70262 1175.97589 1088.88844 1177.08367 C 1086.88329 1178.30709 1085.82374 1162.16218 1085.85454 1130.85233 C 1085.88842 1098.66598 1086.88945 1084.2497 1088.88844 1087.3052 C 1090.53013 1089.81596 1091.89462 1110.62022 1091.92234 1133.53655 M 505.84321 1106.32606 C 505.10707 1110.09371 504.50645 1107.01082 504.50645 1099.47855 C 504.50645 1091.9463 505.10707 1088.8634 505.84321 1092.63105 C 506.57628 1096.3987 506.57628 1102.55841 505.84321 1106.32606 M 1107.67707 1183.93118 C 1107.50767 1191.04346 1108.75511 1196.86537 1110.44917 1196.86537 C 1114.00053 1196.86537 1114.00053 1189.55831 1110.44917 1178.60534 C 1108.3547 1172.14129 1107.9358 1172.94473 1107.67707 1183.93118 M 510.14612 1237.79826 C 509.91203 1248.90643 510.73442 1251.96804 513.2755 1249.45728 C 515.72726 1247.03478 515.81967 1242.69498 513.59275 1234.39276 L 510.46645 1222.73373 L 510.14612 1237.79826" stroke="none" fill="undefined" fill-rule="evenodd" style="">
    <title>Logo</title>
  </path>
</svg>