<?xml version="1.0" encoding="utf-8"?>
<svg width="1536px" height="1536px" id="svg2" version="1.1" viewBox="0 0 1536 1536" xmlns="http://www.w3.org/2000/svg" xmlns:xlink="http://www.w3.org/1999/xlink">
  <defs id="defs4">
    <linearGradient id="linearGradient4110">
      <stop style="stop-opacity: 1; stop-color: rgb(242, 74, 13);" offset="0" id="stop4112"/>
      <stop style="stop-opacity: 1; stop-color: rgb(240, 222, 30);" offset="1" id="stop4114"/>
    </linearGradient>
    <linearGradient id="linearGradient4116" x1="511.68015" y1="0" x2="511.68015" y2="1461.4401" gradientUnits="userSpaceOnUse" gradientTransform="matrix(1.5, 0, 0, 1.501643, 0, 0)" xlink:href="#linearGradient4110"/>
  </defs>
  <rect style="color: rgb(0, 0, 0); fill: url(#linearGradient4116); fill-opacity: 1; fill-rule: nonzero; stroke: none; stroke-width: 2; marker: none; visibility: visible; display: inline; overflow: visible;" id="rect4108" width="1536" height="1536">
    <title>Background gradient</title>
  </rect>
  <path d="M 638.45826 106.38457 C 637.66888 107.64439 630.19876 109.51339 621.86032 110.53992 C 613.52187 111.56643 603.73888 113.86833 600.11827 115.65696 C 596.49767 117.44559 589.39328 119.6775 584.32811 120.61847 C 573.96362 122.5445 557.69194 128.48587 521.17804 143.6789 C 472.48143 163.94233 417.52769 194.8883 385.66848 219.98623 C 381.32692 223.40536 370.67035 231.30128 361.9872 237.533 C 341.7397 252.05982 265.1597 328.74301 250.60625 349.06086 C 244.47805 357.6152 232.94 374.19766 224.96994 385.91192 C 216.99724 397.62618 209.16927 408.00545 207.57735 408.97494 C 205.98544 409.94444 195.84987 411.59049 185.05909 412.63258 C 162.31454 414.8256 157.10992 418.52211 149.70294 437.73049 C 142.10388 457.44435 143.23005 464.90996 155.43381 475.77138 C 161.22257 480.92473 165.95882 486.8687 165.95882 488.98136 C 165.95882 491.09402 161.3515 504.22106 155.72062 518.15166 C 142.79327 550.13713 137.62549 565.38718 133.08657 584.95329 C 131.10261 593.50764 128.2819 605.17264 126.81892 610.87554 C 118.16999 644.58742 111.7632 647.4904 110.87384 761.0402 C 110.26076 839.38241 116.75701 883.46609 118.60679 885.6643 C 120.11976 887.4607 122.35896 896.35722 123.58511 905.43519 C 131.63674 965.03562 168.75058 1060.46577 210.07178 1127.80399 C 238.03148 1173.36752 259.27096 1199.48937 305.2758 1244.88959 C 330.67792 1269.9564 359.15861 1295.87087 368.56534 1302.47586 C 414.11497 1334.45614 458.46211 1361.79113 480.3936 1371.4057 C 483.28799 1372.67589 494.53659 1377.83182 505.39051 1382.86334 C 533.63965 1395.96443 543.06743 1399.60133 571.17185 1408.24121 C 610.51435 1420.33653 621.55773 1423.16465 635.53231 1424.72517 C 642.70775 1425.52358 649.75424 1427.33554 651.18827 1428.7483 C 652.83281 1430.36844 697.36201 1437.92776 772.16854 1437.90442 C 868.68292 1437.87332 892.82417 1430.54212 901.39416 1427.50144 C 907.18292 1425.44581 915.74238 1423.7142 920.41549 1423.65199 C 925.0886 1423.58977 936.33721 1421.29047 945.4124 1418.5453 C 978.65829 1408.48748 1004.29722 1400.37899 1015.85369 1396.26514 C 1030.28612 1391.12734 1085.69505 1364.78256 1094.79129 1358.73231 C 1098.40926 1356.32673 1113.80209 1346.37 1128.99759 1336.60508 C 1157.57563 1318.23917 1216.50518 1268.67065 1226.95652 1254.20604 C 1230.2298 1249.67743 1239.49444 1238.81082 1247.54345 1230.05688 C 1260.60236 1215.86186 1301.35257 1158.34817 1310.85929 1140.7029 C 1329.39121 1106.29631 1339.9636 1085.22929 1345.83391 1070.99539 C 1349.65713 1061.72818 1353.81715 1052.31323 1355.08014 1050.07355 C 1362.85286 1036.26736 1386.78412 967.07052 1393.56486 938.79195 C 1395.44621 930.95046 1398.21691 919.8687 1399.72725 914.1658 C 1407.87098 883.39351 1411.44423 865.18572 1413.46502 844.17574 C 1414.69908 831.34423 1417.50663 813.60823 1419.70373 804.75838 C 1424.43472 785.70553 1425.25041 692.3984 1420.83254 675.68115 C 1419.32482 669.97825 1416.52518 653.64724 1414.61225 639.39 C 1409.92073 604.45459 1397.75907 555.85557 1387.82873 532.37261 C 1382.3373 519.38297 1383.32664 514.26074 1392.20976 509.73471 C 1401.04025 505.23461 1400.94025 504.77579 1387.59191 488.39292 C 1382.61096 482.28047 1376.34856 477.37598 1373.52786 477.37598 C 1367.73647 477.37598 1357.91664 468.71017 1357.91664 463.60089 C 1357.91664 460.94905 1367.42335 460.05473 1400.6745 459.57516 C 1433.0284 459.10857 1444.87166 458.0302 1449.35269 455.14765 C 1456.7123 450.40907 1457.1754 439.67985 1450.18417 435.99111 C 1447.18454 434.40985 1424.47682 433.30815 1394.92785 433.30815 C 1338.7269 433.30815 1341.49235 434.16359 1327.60986 412.49519 C 1311.98021 388.10494 1279.45529 348.71868 1255.70296 325.42755 C 1203.12262 273.85784 1102.63769 206.03487 1077.7855 205.33756 C 1074.94638 205.2572 1063.10574 200.61713 1051.47297 195.02569 C 1023.85533 181.75091 992.43553 169.6841 957.25304 158.83824 C 936.04777 152.30324 935.73991 152.28509 930.75896 157.18958 C 922.69153 165.13993 930.18534 175.13814 950.07235 182.94851 C 978.82668 194.24284 987.80453 199.00994 994.02744 206.2941 C 997.67699 210.57126 999.41625 214.47774 997.89011 214.98064 C 996.36399 215.48094 987.64402 212.7565 978.51357 208.9226 C 941.3208 193.31223 928.32768 189.76088 914.22679 191.34992 C 904.94372 192.39458 896.52371 191.48471 887.17487 188.42589 C 877.48922 185.2556 869.29024 184.43128 858.55472 185.54074 C 840.05701 187.45381 836.60744 187.4564 805.35342 185.5874 C 776.90167 183.88431 769.00001 186.66836 772.39433 197.20057 C 774.40197 203.43228 787.95819 210.37685 798.11747 210.37685 C 801.46705 210.37685 810.6817 212.17845 818.59387 214.37923 C 826.50606 216.58003 840.67798 219.96549 850.08472 221.89929 C 859.49145 223.83567 875.47631 228.53278 885.60664 232.34077 C 895.73697 236.14874 908.16964 240.46739 913.2348 241.93977 C 918.29996 243.40957 923.62826 245.52741 925.07544 246.64466 C 926.52263 247.7619 935.99515 251.868 946.12548 255.76669 C 977.07428 267.68316 1013.66448 286.59861 1045.54475 307.16274 C 1083.36113 331.55816 1143.74576 380.09238 1160.09901 399.23854 C 1166.87185 407.17076 1178.91246 420.51811 1186.85358 428.90138 L 1201.29654 444.14625 L 1096.07534 442.62979 C 1038.20619 441.7951 988.48864 441.14704 985.59428 441.18851 C 951.82739 441.67068 939.32104 441.09002 925.52012 438.40188 C 912.90852 435.94445 895.78959 435.8926 848.76909 438.17635 C 760.8747 442.44316 721.48747 442.0595 708.97586 436.81025 C 699.97697 433.03597 681.27928 432.46049 548.8062 431.87466 C 419.90898 431.30437 397.00919 430.63039 385.90793 427.07645 C 377.28005 424.31314 363.30283 422.92889 343.80787 422.91074 C 327.75723 422.89519 310.15414 422.15382 304.69167 421.26468 C 296.14798 419.87266 294.97707 418.88243 296.31112 414.16458 C 297.85566 408.71054 308.28069 383.45968 314.09312 371.09477 C 315.76924 367.53046 337.45866 344.20044 362.2898 319.25027 C 387.12357 294.30012 409.85233 269.22034 412.79671 263.51745 C 415.74372 257.81456 425.64511 246.06918 434.80189 237.41375 C 451.47088 221.6608 494.8734 189.63905 499.55966 189.63905 C 500.9279 189.63905 504.87216 187.58601 508.32437 185.07673 C 513.74474 181.13396 547.54057 165.07254 572.48749 154.58181 C 588.78021 147.72797 607.32002 142.43723 626.9439 139.04142 C 638.08199 137.1128 649.72529 134.19914 652.81965 132.56863 C 656.17976 130.79814 681.27139 128.85916 715.1172 127.75747 C 770.12619 125.96624 771.93649 125.73553 776.73063 119.90044 C 779.44872 116.59535 781.67213 111.68567 781.67213 108.99235 C 781.67213 104.31339 778.53304 104.09564 710.78352 104.09564 C 671.79362 104.09564 639.24764 105.12476 638.45826 106.38457 M 1386.86043 471.5331 C 1386.86043 472.78773 1390.48629 477.24117 1394.91995 481.42761 C 1402.73215 488.80769 1403.8978 489.06691 1433.07312 489.91197 L 1463.16678 490.78296 L 1463.16678 482.78335 L 1463.16678 474.78375 L 1446.72144 474.31197 C 1437.67782 474.05014 1423.17171 473.65872 1414.48858 473.44098 C 1405.80545 473.22064 1396.03823 472.18893 1392.78075 471.14685 C 1389.52325 470.10219 1386.86043 470.27587 1386.86043 471.5331 M 1252.49547 538.09105 C 1262.29688 549.72497 1284.43099 626.06338 1278.57645 628.03088 C 1278.07388 628.19937 1252.03237 629.07555 1220.7073 629.97505 C 1171.10028 631.40077 1163.0802 632.21213 1158.5413 636.26119 C 1153.81293 640.47874 1153.17617 640.51762 1151.68951 636.69668 C 1148.67672 628.96408 1149.99761 614.92978 1155.1575 599.86895 C 1157.96768 591.66455 1161.07256 578.1798 1162.05666 569.90024 C 1164.18533 552.00611 1168.13749 548.55846 1191.12147 544.52496 C 1199.64673 543.02925 1213.72395 540.27112 1222.40708 538.39694 C 1243.67288 533.80352 1248.83802 533.74907 1252.49547 538.09105 M 274.46645 552.55049 C 277.35031 552.55049 284.01526 557.14131 289.27514 562.75089 C 298.53979 572.63504 299.61597 573.04461 323.83403 575.88051 C 369.09948 581.1816 382.80568 581.62747 402.77163 578.45459 C 435.49916 573.25199 445.22428 572.59875 448.07918 575.41132 C 449.95789 577.26217 447.474 578.97821 440.08543 580.93794 C 427.27124 584.33894 419.63007 593.07214 417.23037 607.06238 C 415.53584 616.94135 415.06485 617.3561 405.49235 617.3561 C 400.00882 617.3561 391.09413 615.53376 385.68428 613.30705 C 377.72737 610.03047 366.88396 609.41353 328.87814 610.06676 C 275.79523 610.98181 274.97428 611.27214 270.81691 630.71123 C 264.67556 659.43309 264.83607 662.7926 272.69298 669.96788 C 276.73196 673.65921 284.67571 677.44905 290.34869 678.39262 C 299.92909 679.98683 300.53692 680.5986 298.9029 686.9677 C 294.39819 704.54557 294.4666 709.49672 299.27653 713.75834 C 306.0336 719.74378 337.52444 735.89853 354.98281 742.33243 C 363.02918 745.30052 375.00402 752.63393 381.58741 758.62974 C 388.53918 764.95995 397.31967 770.2455 402.52167 771.22795 C 417.8224 774.11828 418.55916 775.81619 418.55916 808.11271 C 418.55916 824.2856 420.25105 850.09639 422.31658 865.47346 C 424.38475 880.84795 426.82129 917.34129 427.7317 946.56861 C 428.6579 976.25477 430.99182 1006.57342 433.02052 1015.26256 C 435.02028 1023.81691 437.3884 1041.31442 438.28566 1054.14593 C 439.18292 1066.97745 442.12466 1084.47496 444.82695 1093.02929 C 452.69177 1117.93799 460.27241 1143.41178 466.04275 1164.31547 C 468.99502 1175.0084 473.21029 1187.90472 475.41265 1192.9751 C 477.615 1198.0455 480.82777 1208.45068 482.55124 1216.09516 C 485.2509 1228.07383 486.77176 1230.34462 493.56304 1232.53764 C 503.38024 1235.70792 505.84572 1239.09856 503.98806 1246.86745 C 503.18816 1250.21142 503.91176 1254.58451 505.59839 1256.58829 C 514.80251 1267.51194 486.18237 1253.75759 457.67273 1233.55638 C 445.17691 1224.70135 429.19205 1213.39665 422.15081 1208.43514 C 390.12845 1185.87242 330.63318 1120.91127 301.0158 1076.17984 C 283.12328 1049.15072 250.50362 987.63204 244.66224 969.89863 C 243.4887 966.33432 239.41289 955.25256 235.60284 945.2725 C 231.79541 935.29244 227.48016 923.04417 226.01456 918.05415 C 224.55158 913.06411 221.09411 901.66611 218.33655 892.72551 C 215.579 883.78493 213.32139 873.14126 213.32139 869.07405 C 213.32139 865.00427 211.2848 856.57176 208.79563 850.33486 C 204.88296 840.53367 204.27513 828.93865 204.31461 765.11289 C 204.35407 701.77966 205.00136 689.61436 208.84036 679.89093 C 211.30584 673.65402 213.37401 663.73877 213.43715 657.85701 C 213.50031 651.97785 215.31588 642.50067 217.47087 636.79778 C 219.62587 631.09489 222.51499 620.01313 223.89113 612.17165 C 225.26464 604.33017 228.08535 594.41491 230.15878 590.13774 C 232.23221 585.86057 235.195 577.69506 236.74217 571.99217 C 238.28671 566.28927 241.93363 557.81271 244.84117 553.15706 L 250.13262 544.69345 L 259.67618 548.62067 C 264.92552 550.78258 271.57996 552.55049 274.46645 552.55049 M 1026.3787 566.15966 C 1026.38133 567.94312 1020.2242 574.7477 1012.69881 581.2853 L 999.01892 593.17064 L 997.14021 614.69129 C 995.97194 628.0879 993.93535 637.03626 991.74352 638.39718 C 987.02568 641.32899 904.49115 638.76528 891.35857 635.28133 C 885.63822 633.76487 870.49799 632.89649 857.71273 633.3553 C 825.01677 634.52181 823.81429 633.11164 831.47387 602.56746 C 834.64452 589.92258 838.30986 577.87133 839.61496 575.78459 C 841.36211 572.99535 850.53466 571.44002 874.32382 569.89765 C 989.01227 562.47093 1026.3787 561.55069 1026.3787 566.15966 M 686.84701 576.59337 C 691.52012 578.92378 695.06968 584.87293 699.58491 597.94293 C 706.78403 618.77405 712.96484 626.50665 727.67881 633.10386 C 736.42772 637.02331 737.34603 638.10426 733.25443 639.64922 C 730.22587 640.795 724.22134 639.40556 717.51953 636.00715 C 702.78979 628.54155 652.66966 623.76926 628.89628 627.56946 C 608.53566 630.8253 581.71792 631.07155 576.87904 628.05162 C 571.10344 624.44324 572.23488 599.44123 578.73934 586.87931 L 584.35706 576.03086 L 619.20801 575.22467 C 638.37407 574.78399 659.97666 574.1826 667.21261 573.89227 C 674.44855 573.60194 683.2843 574.81769 686.84701 576.59337 M 1288.0016 657.71963 C 1292.40895 662.0642 1293.65617 675.74595 1289.85663 678.05821 C 1288.60152 678.82293 1285.40981 677.08873 1282.76014 674.20618 C 1278.36068 669.41574 1275.88467 669.10468 1254.12158 670.61853 C 1233.36362 672.0624 1228.77735 671.58544 1218.46021 666.90646 C 1211.40318 663.70767 1201.0992 661.51465 1192.96072 661.48094 C 1185.4485 661.44983 1178.45463 660.07337 1177.41791 658.42212 C 1176.01019 656.17725 1184.09604 655.82212 1209.49553 657.00676 C 1228.17479 657.88035 1248.19337 657.61593 1253.98213 656.41833 C 1271.22999 652.85401 1283.53899 653.32581 1288.0016 657.71963 M 1291.86954 700.63391 C 1292.13004 710.79542 1294.0719 723.18626 1296.18479 728.16852 C 1300.73161 738.88735 1301.44467 781.8457 1297.25572 792.69934 C 1295.7296 796.65249 1293.33515 808.89816 1291.9327 819.90993 C 1290.53287 830.92429 1287.77531 843.80506 1285.80713 848.53587 C 1283.84159 853.26667 1281.40242 866.46887 1280.38938 877.87467 C 1277.51606 910.20229 1253.52955 975.61707 1220.49153 1041.23147 C 1197.69435 1086.50727 1174.18936 1125.07438 1160.48053 1139.69712 C 1157.80455 1142.55375 1152.49995 1151.59284 1148.68989 1159.78686 C 1144.88246 1167.98088 1140.74876 1174.68437 1139.50155 1174.68437 C 1138.25433 1174.68437 1137.84386 1163.7063 1138.59114 1150.28635 C 1139.53576 1133.25285 1138.76216 1121.32084 1136.02566 1110.75493 C 1132.88658 1098.63888 1132.3077 1081.66758 1133.12076 1025.63146 C 1133.68121 987.13692 1135.2626 949.22564 1136.63875 941.38416 C 1138.01226 933.54268 1139.22526 904.01206 1139.33052 875.7594 C 1139.49103 832.67663 1140.43301 820.61501 1145.16927 800.98151 C 1150.08708 780.60662 1150.40021 776.00802 1147.59792 765.5095 C 1142.2328 745.4094 1141.42236 736.70211 1144.56672 732.96931 C 1146.21651 731.01219 1155.52325 728.60141 1165.25099 727.61377 C 1184.86436 725.62035 1214.53437 718.50729 1229.55882 712.19523 C 1234.93974 709.9348 1245.00428 708.06581 1251.92448 708.04507 C 1269.2013 707.99064 1271.88517 705.84427 1269.60914 693.8993 L 1267.75148 684.14217 L 1278.62908 685.1661 C 1284.60992 685.72601 1289.50404 685.28016 1289.50404 684.17327 C 1289.50404 683.0664 1289.9303 682.16171 1290.4513 682.16171 C 1290.96966 682.16171 1291.60904 690.47498 1291.86954 700.63391 M 997.43492 782.43155 C 997.43492 797.48978 999.11891 821.62598 1001.17919 836.06727 C 1003.23682 850.50595 1005.6681 889.73408 1006.58377 923.2386 C 1007.54156 958.35027 1009.73866 990.74531 1011.77261 999.70921 C 1013.71185 1008.26356 1016.14839 1028.09407 1017.18511 1043.77703 C 1018.22182 1059.46 1020.68204 1076.37425 1022.65284 1081.36429 C 1024.62366 1086.35431 1027.89167 1098.01933 1029.91511 1107.28654 C 1031.93853 1116.55373 1037.23525 1134.6345 1041.6847 1147.46602 C 1046.13415 1160.29753 1050.93619 1175.46204 1052.35707 1181.16493 C 1053.77794 1186.86783 1057.49854 1198.82576 1060.62709 1207.73524 C 1066.29218 1223.87701 1069.40496 1226.2489 1082.29284 1224.24252 C 1083.37955 1224.07402 1084.26627 1224.9839 1084.26627 1226.26705 C 1084.26627 1227.5476 1076.86719 1232.351 1067.82095 1236.94183 C 1058.77733 1241.53265 1049.59951 1246.74303 1047.42872 1248.5187 C 1042.62143 1252.4537 977.961 1283.55781 974.58774 1283.55781 C 973.26421 1283.55781 961.58409 1288.20566 948.62779 1293.88782 C 935.67414 1299.56738 921.3759 1304.23338 916.8554 1304.25672 C 912.33228 1304.27746 903.5781 1306.05313 897.39992 1308.19948 C 891.22173 1310.34844 877.75235 1312.80588 867.46678 1313.66389 C 857.18384 1314.52192 842.25674 1317.08304 834.2972 1319.35383 C 813.26296 1325.35743 705.10265 1325.38853 684.31575 1319.3979 C 676.35621 1317.10378 662.14744 1314.58413 652.74071 1313.79869 C 643.33398 1313.01324 631.49334 1310.69839 626.42818 1308.65313 C 621.36301 1306.60786 611.62211 1304.14007 604.78085 1303.16798 C 597.94223 1302.19849 591.67457 1300.33727 590.85626 1299.03078 C 590.03794 1297.7269 584.38601 1295.3939 578.29729 1293.84635 C 572.20856 1292.29619 563.67278 1289.51991 559.33121 1287.67425 C 554.98964 1285.8286 543.44108 1281.05372 533.6686 1277.06428 C 523.89612 1273.07484 514.4236 1267.94742 512.61857 1265.66887 C 509.76893 1262.07085 509.90049 1261.9568 513.60529 1264.80565 C 517.3022 1267.64931 518.09421 1266.99867 519.52561 1259.94523 C 521.91215 1248.18172 521.55694 1220.80783 519.0362 1222.34242 C 515.77608 1224.32806 519.77821 1200.51589 524.4329 1190.23772 C 526.69051 1185.24768 529.79012 1178.24868 531.31889 1174.68437 C 533.51598 1169.56472 533.9975 1173.10053 533.61597 1191.53383 C 533.00552 1221.05927 536.49456 1252.02599 541.28344 1259.57972 C 545.5566 1266.3221 553.25564 1267.17494 558.08663 1261.44094 C 563.48333 1255.03296 561.96773 1146.66502 556.19739 1126.57787 C 552.4268 1113.44307 551.86898 1099.78463 552.42154 1033.81512 C 552.77676 991.26893 554.18184 953.5728 555.54221 950.04738 C 556.90256 946.52196 558.01295 920.67748 558.01295 892.61146 C 558.00769 840.34443 563.75698 782.47044 569.57205 776.24909 C 571.67705 773.99645 597.38177 772.68478 661.95009 771.53125 C 711.15454 770.65248 792.38396 767.68179 842.45672 764.93144 C 892.5321 762.17849 943.44686 759.8766 955.60061 759.8118 C 967.84383 759.74699 981.22112 758.17351 985.59428 756.28377 C 989.93584 754.40701 994.37477 753.36235 995.46147 753.96114 C 996.54818 754.55995 997.43492 767.37072 997.43492 782.43155 M 1115.84132 1182.13183 C 1115.84132 1185.3436 1105.18211 1209.0158 1101.92462 1213.04152 C 1099.69331 1215.79705 1098.81184 1215.79705 1097.03838 1213.04152 C 1092.30212 1205.68737 1094.80182 1195.67362 1103.34286 1187.78807 C 1112.026 1179.7729 1115.84132 1178.0439 1115.84132 1182.13183" stroke="none" fill-rule="evenodd" style="">
    <title>Logo</title>
  </path>
  <g style="visibility: hidden;" transform="matrix(1.499983, 0, 0, 1.499944, 0.017593, 0.00901)">
    <title>Guides</title>
    <path d="M 352.20446 -0.00001 L 671.79554 -0.00001 C 773.21114 -0.00001 823.91893 -0.00001 878.50394 17.25958 C 938.10142 38.95131 985.04875 85.89857 1006.74048 145.49612 C 1024 200.08092 1024 250.78875 1024 352.20441 L 1024 671.79557 C 1024 773.21123 1024 823.91906 1006.74048 878.50386 C 985.04875 938.10144 938.10142 985.04863 878.50394 1006.7404 C 823.91893 1023.99999 773.21114 1023.99999 671.79554 1023.99999 L 352.20446 1023.99999 C 250.78886 1023.99999 200.08107 1023.99999 145.49606 1006.7404 C 85.89858 985.04863 38.95125 938.10144 17.25952 878.50386 C 0 823.91906 0 773.21123 0 671.79557 L 0 352.20441 C 0 250.78875 0 200.08092 17.25952 145.49616 C 38.95125 85.89861 85.89858 38.95131 145.49606 17.25958 C 200.08107 -0.00001 250.78886 -0.00001 352.20446 -0.00001 L 352.20446 -0.00001" id="path5" style="fill: none; stroke: rgb(0, 0, 0); stroke-opacity: 1;">
      <title>Outline</title>
    </path>
    <g id="layer6" style="display: inline;">
      <title>Corners</title>
      <path style="color: rgb(0, 0, 0); fill: rgb(255, 255, 255); fill-opacity: 1; fill-rule: nonzero; stroke: none; stroke-width: 2; marker: none; display: inline; overflow: visible;" d="m -0.03515625,708.40625 c 0.05564213,38.75762 0.61632351,71.02215 3.48917125,100.18549 0.8757813,8.89038 2.0231286,17.50673 3.364698,25.91301 2.7291509,17.10087 6.251639,30.63186 10.624705,44.6288 0.983104,3.14664 2.343873,6.00913 3.546782,8.89844 4.954414,11.90016 10.441772,22.62502 16.75229,32.23106 7.482354,11.38984 16.590926,23.44234 26.690428,33.79613 11.282296,11.56636 22.163363,20.60638 34.238258,28.7856 7.753914,5.2523 15.167714,9.80978 23.655414,13.91931 3.34329,1.61873 6.78353,3.25751 10.45545,4.87471 6.01057,2.6472 12.64725,5.2405 20.38236,7.4312 16.33865,4.6274 37.83594,9.5058 66.67436,11.7859 26.04947,2.0596 58.07248,3.2184 99.20801,3.1754 l -319.08192625,0 z" id="path4146"/>
      <path style="color: rgb(0, 0, 0); fill: rgb(255, 255, 255); fill-opacity: 1; fill-rule: nonzero; stroke: none; stroke-width: 2; marker: none; display: inline; overflow: visible;" d="m 1024,708.375 c -0.028,33.52476 -0.3641,57.51886 -2.1872,86.13032 -2.1429,33.63123 -7.6767,62.03085 -16.1313,85.82727 -5.1582,14.5187 -11.40374,27.32387 -18.62968,38.55822 -10.39312,16.15845 -22.65083,31.16786 -36.89519,44.46448 -6.86448,6.40775 -13.96935,11.81612 -21.91877,17.50161 -10.37402,7.41958 -20.2254,13.06198 -32.1818,18.6383 -10.69022,4.9858 -23.165,9.4996 -39.90567,13.451 -11.58454,2.7344 -25.21186,5.3376 -41.70422,7.0737 -27.23282,2.8667 -62.17789,3.4121 -108.25867,3.9801 L 1024,1024 z" id="path4146-5"/>
      <path style="color: rgb(0, 0, 0); fill: rgb(255, 255, 255); fill-opacity: 1; fill-rule: nonzero; stroke: none; stroke-width: 2; marker: none; display: inline; overflow: visible;" d="m 1023.9571,318.26274 c 0.1837,-39.14081 -0.2997,-73.55855 -3.476,-103.94061 -1.4113,-13.49969 -3.8539,-26.31006 -5.9548,-38.18792 -3.6187,-20.45841 -10.1174,-38.44655 -17.2973,-52.70888 -2.12747,-4.22606 -3.90726,-7.55456 -5.77779,-10.81658 -1.49793,-2.61224 -3.05404,-5.18185 -4.89348,-8.13563 -1.96035,-3.14791 -3.87346,-6.195884 -5.993,-9.197124 C 974.88453,87.232938 968.40279,79.35023 961.65509,72.082687 951.58996,61.242143 940.4011,51.100793 927.77306,42.698049 909.73264,30.693887 894.47219,21.390417 866.08729,13.614807 853.18652,10.080839 837.40303,6.7460486 817.42751,4.3881848 790.09127,1.1614792 754.65731,0.08073128 706.1875,0 L 1024,0 z" id="path4146-5-3"/>
      <path style="color: rgb(0, 0, 0); fill: rgb(255, 255, 255); fill-opacity: 1; fill-rule: nonzero; stroke: none; stroke-width: 2; marker: none; display: inline; overflow: visible;" d="M 0,318.48 C 0.04438432,264.21497 1.9515494,215.42652 8.7981727,178.4577 14.754939,146.29372 24.640519,123.97857 37.889606,103.37989 53.29125,79.434582 73.01483,58.195063 97.250401,42.030991 111.80438,32.324119 124.48551,25.310001 143.39137,18.055461 153.25339,14.271217 164.74156,11.469151 178.08885,8.8727346 208.3231,2.9913388 250.69975,-0.29260813 319.08193,0 L 0,0 z" id="path4146-5-3-7"/>
    </g>
    <g id="layer2" style="display: inline;" transform="matrix(1, 0, 0, 1, 0, -2.205444)">
      <title>Grid</title>
      <path style="color: rgb(0, 0, 0); fill: none; stroke: rgb(0, 0, 0); stroke-width: 2; stroke-linecap: butt; stroke-linejoin: miter; stroke-miterlimit: 4; stroke-opacity: 1; stroke-dasharray: none; stroke-dashoffset: 0; marker: none; display: inline; overflow: visible;" d="m 0.99801512,321.03518 0,386.27669" id="path4024"/>
      <path style="color: rgb(0, 0, 0); fill: none; stroke: rgb(0, 0, 0); stroke-width: 1.00571; stroke-linecap: butt; stroke-linejoin: miter; stroke-miterlimit: 4; stroke-opacity: 1; stroke-dasharray: none; stroke-dashoffset: 0; marker: none; display: inline; overflow: visible;" id="path3129" d="m 600.32144,298.86218 a 138,138 0 1 1 -276,0 138,138 0 1 1 276,0 z" transform="matrix(1.988799,0,0,1.988471,-407.91018,-80.585593)"/>
      <path style="color: rgb(0, 0, 0); fill: none; stroke: rgb(0, 0, 0); stroke-width: 0.620861; stroke-linecap: butt; stroke-linejoin: miter; stroke-miterlimit: 4; stroke-opacity: 1; stroke-dasharray: none; stroke-dashoffset: 0; marker: none; display: inline; overflow: visible;" id="path3129-9" d="m 600.32144,298.86218 a 138,138 0 1 1 -276,0 138,138 0 1 1 276,0 z" transform="matrix(3.2215081,0,0,3.2211587,-977.38931,-448.55899)"/>
      <path style="color: rgb(0, 0, 0); fill: none; stroke: rgb(0, 0, 0); stroke-width: 2; stroke-linecap: butt; stroke-linejoin: miter; stroke-miterlimit: 4; stroke-opacity: 1; stroke-dasharray: none; stroke-dashoffset: 0; marker: none; display: inline; overflow: visible;" d="M 67.351921,69.489974 956.5625,958.70544" id="path4011"/>
      <path style="color: rgb(0, 0, 0); fill: none; stroke: rgb(0, 0, 0); stroke-width: 2; stroke-linecap: butt; stroke-linejoin: miter; stroke-miterlimit: 4; stroke-opacity: 1; stroke-dasharray: none; stroke-dashoffset: 0; marker: none; display: inline; overflow: visible;" d="m 0.99801467,707.31189 1022.00298533,0" id="path4028"/>
      <path style="color: rgb(0, 0, 0); fill: none; stroke: rgb(0, 0, 0); stroke-width: 2; stroke-linecap: butt; stroke-linejoin: miter; stroke-miterlimit: 4; stroke-opacity: 1; stroke-dasharray: none; stroke-dashoffset: 0; marker: none; display: inline; overflow: visible;" d="m 0.99801467,513.69318 1022.00298533,0" id="path4030"/>
      <path style="color: rgb(0, 0, 0); fill: none; stroke: rgb(0, 0, 0); stroke-width: 2; stroke-linecap: butt; stroke-linejoin: miter; stroke-miterlimit: 4; stroke-opacity: 1; stroke-dasharray: none; stroke-dashoffset: 0; marker: none; display: inline; overflow: visible;" d="m 0.99801467,321.0352 1022.00298533,0" id="path4032"/>
      <path style="color: rgb(0, 0, 0); fill: none; stroke: rgb(0, 0, 0); stroke-width: 2; stroke-linecap: butt; stroke-linejoin: miter; stroke-miterlimit: 4; stroke-opacity: 1; stroke-dasharray: none; stroke-dashoffset: 0; marker: none; display: inline; overflow: visible;" d="m 319.08193,1026.2054 0,-1023.9999557" id="path4034"/>
      <path style="color: rgb(0, 0, 0); fill: none; stroke: rgb(0, 0, 0); stroke-width: 2; stroke-linecap: butt; stroke-linejoin: miter; stroke-miterlimit: 4; stroke-opacity: 1; stroke-dasharray: none; stroke-dashoffset: 0; marker: none; display: inline; overflow: visible;" d="m 511.68014,2.2054443 0,1023.9999557" id="path4036"/>
      <path style="color: rgb(0, 0, 0); fill: none; stroke: rgb(0, 0, 0); stroke-width: 2; stroke-linecap: butt; stroke-linejoin: miter; stroke-miterlimit: 4; stroke-opacity: 1; stroke-dasharray: none; stroke-dashoffset: 0; marker: none; display: inline; overflow: visible;" d="m 706.1875,1026.2054 0,-1023.9999557" id="path4038"/>
      <path style="color: rgb(0, 0, 0); fill: none; stroke: rgb(0, 0, 0); stroke-width: 2; stroke-linecap: butt; stroke-linejoin: miter; stroke-miterlimit: 4; stroke-opacity: 1; stroke-dasharray: none; stroke-dashoffset: 0; marker: none; display: inline; overflow: visible;" d="M 67.351921,958.70544 956.5625,69.489974" id="path4001"/>
      <path style="color: rgb(0, 0, 0); fill: none; stroke: rgb(0, 0, 0); stroke-width: 2; stroke-linecap: butt; stroke-linejoin: miter; stroke-miterlimit: 4; stroke-opacity: 1; stroke-dasharray: none; stroke-dashoffset: 0; marker: none; display: inline; overflow: visible;" d="m 956.5625,69.489974 0,889.215466" id="path4003"/>
      <path style="color: rgb(0, 0, 0); fill: none; stroke: rgb(0, 0, 0); stroke-width: 2; stroke-linecap: butt; stroke-linejoin: miter; stroke-miterlimit: 4; stroke-opacity: 1; stroke-dasharray: none; stroke-dashoffset: 0; marker: none; display: inline; overflow: visible;" d="m 67.351921,69.489974 889.210579,0" id="path4009"/>
      <path style="color: rgb(0, 0, 0); fill: none; stroke: rgb(0, 0, 0); stroke-width: 2; stroke-linecap: butt; stroke-linejoin: miter; stroke-miterlimit: 4; stroke-opacity: 1; stroke-dasharray: none; stroke-dashoffset: 0; marker: none; display: inline; overflow: visible;" d="m 67.351921,958.70544 0,-889.215466" id="path4007"/>
      <path style="color: rgb(0, 0, 0); fill: none; stroke: rgb(0, 0, 0); stroke-width: 2; stroke-linecap: butt; stroke-linejoin: miter; stroke-miterlimit: 4; stroke-opacity: 1; stroke-dasharray: none; stroke-dashoffset: 0; marker: none; display: inline; overflow: visible;" d="m 956.5625,958.70544 -889.210579,-3e-5" id="path4005"/>
      <path style="color: rgb(0, 0, 0); fill: none; stroke: rgb(0, 0, 0); stroke-width: 1.42908; stroke-linecap: butt; stroke-linejoin: miter; stroke-miterlimit: 4; stroke-opacity: 1; stroke-dasharray: none; stroke-dashoffset: 0; marker: none; display: inline; overflow: visible;" id="path3129-7" d="m 600.32144,298.86218 a 138,138 0 1 1 -276,0 138,138 0 1 1 276,0 z" transform="matrix(1.4025564,0,0,1.3964479,-135.79717,96.569794)"/>
    </g>
  </g>
</svg>