<?xml version="1.0" encoding="utf-8"?>
<svg id="svg" version="1.1" width="532px" height="532px" viewBox="0 0 532 532" xmlns="http://www.w3.org/2000/svg">
  <path d="M 223.64727 8.70246 C 221.6162 8.95853 213.67042 10.53509 205.99053 12.20369 C 168.8208 20.28119 137.95106 34.14688 105.64726 57.27485 C 83.00272 73.48768 63.30015 93.48495 45.79359 118.02545 C 42.18199 123.0879 38.34635 127.66771 37.26927 128.20345 C 36.19342 128.73802 32.18915 129.53928 28.37197 129.98298 C 24.5548 130.4255 20.65023 131.42147 19.69501 132.19559 C 18.7398 132.96971 16.92784 136.47684 15.66858 139.9887 C 13.13282 147.06551 13.02081 146.82242 21.1623 151.99816 L 24.11166 153.87327 L 18.29665 169.109 C 10.95774 188.33688 8.45891 196.84274 4.68113 215.46053 C -1.75427 247.1805 -1.55117 281.74088 5.27075 315.69942 C 15.98616 369.03689 40.75901 414.01365 79.18801 449.90159 C 101.67991 470.90663 121.71238 484.54221 149.79032 497.95947 C 177.04969 510.98496 202.891 517.93315 236.08847 521.16179 C 242.93008 521.82734 251.68459 522.72654 255.54116 523.16081 C 268.49074 524.62054 310.30362 519.63007 332.58626 513.96579 C 363.78712 506.03344 386.41443 495.66544 411.98247 477.58222 C 454.77026 447.32198 488.69398 395.7192 506.62276 333.62215 C 514.82703 305.20634 519.69667 275.19155 519.68313 253.11148 C 519.67082 229.9009 513.4693 195.62256 505.40535 174.19388 C 502.82528 167.33538 502.47569 165.18413 503.56877 162.88302 C 505.76725 158.25719 505.16162 156.58976 500.62188 154.77247 C 496.75793 153.22424 492.60963 147.38295 492.60963 143.48875 C 492.60963 142.91878 500.59603 142.45266 510.35746 142.45266 C 529.33007 142.45266 532 142.05144 532 139.19688 C 532 137.5979 529.45563 137.45511 511.3496 138.04278 C 499.69005 138.4204 489.824 138.24221 488.68783 137.6333 C 487.58121 137.03973 484.41274 133.11722 481.64557 128.91739 C 470.58549 112.1287 449.62982 90.31177 431.63088 76.8473 C 416.20709 65.30987 390.54672 50.40809 386.103 50.40809 C 385.02592 50.40809 377.6673 47.54409 369.75107 44.04403 C 354.66333 37.37198 338.56251 32.04402 329.78092 30.81912 L 324.58509 30.09456 L 327.5886 32.28593 C 329.24054 33.49077 335.05677 36.91412 340.51357 39.89259 C 347.44627 43.67704 351.04926 46.45725 352.4747 49.11947 C 353.59733 51.21643 355.52745 54.08987 356.76456 55.50476 C 358.25031 57.20523 357.76778 57.01052 355.33912 54.92772 C 351.40501 51.55393 340.40771 46.52334 333.64487 45.00224 C 329.39564 44.04757 317.99089 43.46699 293.19589 42.94186 C 285.41013 42.77783 275.92198 42.21258 272.11096 41.68746 C 267.92697 41.11041 264.89637 41.17413 264.46184 41.84913 C 264.06055 42.47102 272.03464 44.93026 282.4694 47.4013 C 322.21182 56.81227 358.09275 72.59201 387.36349 93.53215 C 411.24882 110.62058 438.37648 138.27289 434.44729 141.5275 C 434.27865 141.66792 408.38194 142.15529 376.90042 142.60961 C 345.4189 143.06511 316.40912 143.80029 312.43439 144.24281 C 307.30995 144.81396 305.45122 144.66999 306.04453 143.75073 C 306.50491 143.03679 308.54336 142.45266 310.57443 142.45266 C 312.72243 142.45266 313.94969 141.9594 313.50655 141.2726 C 313.02771 140.52917 298.99735 140.08192 275.58224 140.06422 C 251.25868 140.04534 236.50453 139.55798 232.87938 138.65287 C 229.07452 137.70411 210.3801 137.25096 173.17836 137.2073 C 124.06841 137.1483 110.3618 136.61137 78.22541 133.49012 C 74.74675 133.15144 70.95173 132.21093 69.79218 131.39787 C 67.82758 130.01956 67.91498 129.29973 71.09821 120.70418 C 75.12219 109.83938 79.77394 104.04765 97.70641 87.57994 C 104.77329 81.08961 112.51842 72.85871 114.91631 69.28903 C 125.64772 53.31575 150.34794 36.4421 180.3991 24.55419 C 191.57735 20.13251 219.63191 13.87466 228.40242 13.84515 C 234.00816 13.82745 265.30012 10.22001 264.59232 9.67365 C 263.89438 9.13436 227.12224 8.2623 223.64727 8.70246 M 84.25952 138.56319 C 82.74545 138.84286 79.97582 138.84994 78.10478 138.57971 C 76.23373 138.3083 77.47207 138.07936 80.85718 138.06992 C 84.24229 138.06166 85.77359 138.28351 84.25952 138.56319 M 86.08871 146.85192 C 83.55049 147.10681 79.39604 147.10681 76.85659 146.85192 C 74.31838 146.59821 76.39499 146.38934 81.47265 146.38934 C 86.55032 146.38934 88.62816 146.59821 86.08871 146.85192 M 436.90919 146.86018 C 433.69272 147.10327 428.43164 147.10327 425.21517 146.86018 C 421.9987 146.61709 424.63047 146.41766 431.06218 146.41766 C 437.49389 146.41766 440.12566 146.61709 436.90919 146.86018 M 499.66051 146.84484 C 501.84544 147.10563 505.72293 147.10917 508.27715 146.85428 C 510.83014 146.59821 509.0428 146.3858 504.30365 146.3799 C 499.56449 146.37518 497.47434 146.58405 499.66051 146.84484 M 442.7562 154.25325 C 444.33427 154.90346 440.79899 155.24096 432.9086 155.19493 C 424.39536 155.14537 421.92731 154.85508 424.90744 154.25325 C 430.90339 153.04369 439.81915 153.04369 442.7562 154.25325 M 512.92029 154.25325 C 512.43407 155.00848 516.0666 155.4038 523.003 155.3507 C 530.20651 155.29524 533.02046 154.92706 531.38453 154.25325 C 527.92556 152.82892 513.83858 152.82892 512.92029 154.25325 M 448.91094 164.87377 C 448.49242 165.52281 444.27273 166.05383 439.53357 166.05383 C 434.10262 166.05383 431.19758 166.49045 431.67766 167.23389 C 432.15896 167.98087 429.13328 168.40215 423.44138 168.38327 L 414.44437 168.35259 L 419.36816 166.11874 C 423.14841 164.40411 427.24008 163.86246 436.98181 163.7893 C 445.15285 163.72794 449.40086 164.11382 448.91094 164.87377 M 456.59945 174.27648 C 459.39986 178.23912 467.03051 199.58992 468.50396 207.58718 C 469.18221 211.26424 468.90032 212.15754 466.70677 213.28332 C 465.27641 214.01732 463.21949 214.29227 462.13749 213.89459 C 461.05548 213.49573 454.86627 213.70814 448.38533 214.36661 C 441.90438 215.0239 431.1705 215.75082 424.532 215.98093 C 409.12174 216.5155 409.08851 216.47302 412.41084 199.92978 C 413.7415 193.30493 415.18786 185.86938 415.62608 183.40541 C 416.55052 178.21316 417.86887 177.51102 430.44671 175.52144 C 435.18586 174.77093 441.83298 173.18021 445.21809 171.98363 C 448.6032 170.78823 451.92677 169.93505 452.60379 170.08845 C 453.28081 170.24068 455.07923 172.12641 456.59945 174.27648 M 374.43852 174.31424 C 370.78137 176.2342 367.49228 176.58232 352.6618 176.6248 C 342.28614 176.6543 334.88444 176.19526 334.43268 175.4943 C 333.95138 174.74732 337.06322 174.31424 342.90407 174.31424 C 347.98174 174.31424 352.47839 173.78322 352.89692 173.13418 C 353.32775 172.46627 359.10829 171.97537 366.20224 172.00369 L 378.74685 172.05325 L 374.43852 174.31424 M 430.44671 172.55124 C 427.65614 173.48348 414.02092 173.79148 414.58962 172.90997 C 414.92813 172.38367 418.91148 171.99661 423.44138 172.04735 C 427.97127 172.09809 431.12373 172.32584 430.44671 172.55124 M 62.64036 177.88982 C 67.17026 178.82089 69.02653 179.90536 70.60214 182.53807 C 72.0362 184.93595 73.8937 186.15377 76.75689 186.57505 C 96.26497 189.44731 102.60928 189.89692 113.48841 189.17944 C 120.13922 188.73928 127.01161 188.72512 128.76079 189.14522 C 132.97556 190.16007 132.9891 193.86663 128.78295 194.87912 C 125.52955 195.66268 122.09397 201.43199 122.09397 206.11564 C 122.09397 209.57793 118.01214 210.07474 106.70711 207.99076 C 95.28144 205.88553 74.95478 205.5976 69.37365 207.46209 C 66.45015 208.43918 65.22412 209.7868 64.27383 213.06737 C 61.63098 222.18686 63.40355 226.297 70.73385 228.05057 C 74.93016 229.0548 76.34575 231.51876 75.67488 236.64612 C 75.39176 238.80091 75.85706 241.36871 76.70765 242.35052 C 78.76456 244.72716 94.05664 252.05296 101.21092 254.08974 C 105.06625 255.1872 107.35336 256.63513 108.26549 258.55509 C 109.17885 260.47386 111.66414 262.04688 115.93307 263.40631 C 123.88377 265.93871 124.56079 267.54713 124.5374 283.84138 C 124.50417 307.22778 128.65493 357.05458 132.6949 381.76264 C 133.68089 387.79628 136.07878 397.35476 138.02368 403.0037 C 139.96858 408.65382 141.94179 415.1347 142.40955 417.40631 C 142.87608 419.67793 144.28921 423.25469 145.5497 425.35519 C 146.80897 427.45451 148.50891 432.27859 149.32749 436.07484 C 150.76893 442.76813 150.88218 442.91092 153.07203 440.8116 C 154.31406 439.62092 155.88352 438.64737 156.56054 438.64737 C 157.23757 438.64737 157.80626 437.71748 157.8235 436.58227 C 157.84196 435.44705 158.87473 432.39306 160.11922 429.79693 L 162.38293 425.0767 L 163.15474 430.38696 C 163.57942 433.3076 164.12596 437.2903 164.36722 439.2374 C 164.60972 441.1845 164.89161 438.21547 164.99254 432.63851 C 165.29167 416.23806 166.74665 390.19534 167.33258 390.75823 C 167.63047 391.04381 168.40227 399.67829 169.04729 409.94716 C 169.69231 420.21485 170.60813 434.81218 171.08328 442.3858 C 171.55843 449.95823 172.40409 456.59134 172.96294 457.12591 C 174.14219 458.25522 173.13035 416.94137 171.32701 390.26497 C 169.2664 359.81001 168.52044 319.46145 170.01605 319.46145 C 170.84201 319.46145 171.33932 323.08659 171.3504 329.19693 C 171.36394 336.0755 171.73076 338.41319 172.59858 337.16233 C 173.32976 336.10854 173.75321 325.78775 173.64365 311.6412 C 173.54395 298.57795 173.85168 287.28479 174.32806 286.5449 C 174.80567 285.805 175.64395 280.93608 176.19172 275.72612 C 176.74072 270.51498 177.57777 265.87735 178.05291 265.41949 C 178.52806 264.9628 197.29019 263.91609 219.74639 263.09477 C 242.20259 262.27345 275.80873 261.03557 294.42684 260.34406 C 313.04494 259.65372 334.08925 258.99761 341.19182 258.88786 L 354.10571 258.68843 L 355.61116 272.84914 C 356.43836 280.63752 357.66192 299.75447 358.33033 315.33125 C 360.06227 355.72937 365.16086 391.90761 370.87739 404.36785 C 372.20312 407.25545 373.7812 412.96221 374.38436 417.04758 C 375.02938 421.40907 376.52375 425.74579 378.00581 427.55128 C 379.39309 429.2423 380.87762 432.41312 381.30476 434.59623 C 381.73313 436.77934 382.43969 438.5211 382.87668 438.46682 C 385.23641 438.17417 385.90851 438.82202 384.28612 439.82743 C 383.27058 440.4564 382.99362 440.9709 383.67064 440.9709 C 385.66478 440.9709 388.1156 439.12765 388.48735 437.34931 C 389.13975 434.21743 391.84784 428.61687 393.61179 426.74648 C 395.20587 425.05899 396.60669 418.13677 398.6636 401.79296 C 399.98933 391.25858 401.5194 397.49165 401.5194 413.42362 C 401.5194 428.98505 400.35246 434.83342 397.57421 433.18724 C 396.8061 432.73292 396.55991 432.917 397.00798 433.61324 C 398.47034 435.88013 381.5251 449.6526 369.4778 455.98951 C 351.10589 465.65301 327.44704 474.64978 312.89107 477.5067 C 270.32485 485.86387 233.81614 485.49806 199.02829 476.36558 C 177.64424 470.75204 160.20169 463.37786 140.26278 451.52299 C 84.40354 418.31024 42.71376 355.65975 32.75415 289.95999 C 30.35257 274.12242 30.90896 246.47247 33.97156 229.38994 C 36.99846 212.51392 46.29705 182.10617 49.59969 178.2934 C 51.27255 176.35929 54.68966 176.25426 62.64036 177.88982 M 366.98513 186.40984 C 366.35611 188.55401 363.59756 192.10953 360.73191 194.47318 C 355.77857 198.55855 355.58039 198.99635 354.84305 207.45383 C 354.42452 212.26729 353.6441 216.8707 353.10864 217.6814 C 351.35823 220.33653 308.14946 219.30044 287.25533 216.10248 C 284.07825 215.61629 282.78452 214.6097 281.47602 211.60764 C 279.93487 208.07218 280.10228 206.84256 283.432 197.2829 C 285.43475 191.5313 287.75879 186.40748 288.59583 185.8977 C 289.43288 185.38791 297.59653 184.90055 306.73633 184.8144 C 315.87612 184.72944 326.95467 184.2704 331.35531 183.79719 C 335.75595 183.32281 345.82634 182.85315 353.73396 182.75402 L 368.11145 182.57465 L 366.98513 186.40984 M 235.55424 197.30887 C 239.47235 208.5324 244.53278 213.91347 250.15822 212.8349 C 252.60904 212.36405 253.79813 212.71453 254.33852 214.06452 C 255.01308 215.752 253.94585 215.84523 244.29397 214.9472 C 238.35465 214.39375 222.02241 213.92055 207.99944 213.89459 C 176.32835 213.83441 177.37589 214.35835 180.3154 200.05014 C 181.60051 193.79937 183.1035 189.72699 184.48462 188.75934 C 186.10086 187.62648 192.39347 187.32557 209.45442 187.56512 L 232.26391 187.88492 L 235.55424 197.30887 M 248.32533 207.46563 C 250.37486 211.26542 250.15699 213.24084 247.97697 210.62937 C 246.43952 208.78848 244.77035 203.81571 245.68987 203.81571 C 246.05669 203.81571 247.2421 205.45835 248.32533 207.46563 M 119.33911 215.24694 C 118.16232 215.54195 115.94661 215.55257 114.41531 215.27054 C 112.88401 214.9885 113.84661 214.74659 116.5547 214.73361 C 119.26279 214.72063 120.51589 214.95192 119.33911 215.24694 M 469.68198 220.1725 C 471.18496 221.7644 471.94077 225.41078 472.43315 233.44816 C 472.80612 239.54198 473.68256 246.30726 474.38051 248.48211 C 476.65284 255.56364 475.52775 273.87225 471.73151 291.59791 C 469.76937 300.75752 467.80232 310.84702 467.36041 314.0202 C 465.41674 327.98501 446.27548 371.13268 432.22297 393.22691 C 422.35814 408.73878 404.43798 430.61353 406.72263 424.35568 C 407.05129 423.45412 406.77063 421.38901 406.0973 419.76643 C 403.33382 413.09792 400.33769 329.06123 402.59648 321.55606 L 403.75973 317.69136 L 404.02069 322.4116 C 404.16348 325.00773 404.71495 336.42479 405.24549 347.78286 C 406.00744 364.11723 406.117 360.3257 405.76372 329.64064 C 405.39566 297.55248 405.65047 289.49504 407.23593 283.02832 C 408.68599 277.11151 408.95926 272.05024 408.35486 262.22861 C 407.58798 249.75421 407.66184 249.1866 410.23822 247.66669 C 411.71289 246.79698 417.90703 245.63699 424.00392 245.08826 C 430.09958 244.54071 435.54776 243.64977 436.11153 243.1093 C 436.67408 242.57001 430.83692 242.13693 423.13979 242.14755 C 415.44144 242.15817 409.39994 241.76875 409.7126 241.28257 C 410.02526 240.79638 417.86518 240.33144 427.13422 240.2512 C 442.19242 240.12021 464.57969 238.69824 459.06627 238.22268 C 457.8821 238.12119 456.91211 237.47452 456.91211 236.78773 C 456.91211 236.10093 456.45543 235.80828 455.89781 236.13869 C 455.34019 236.46911 454.92413 235.60059 454.9746 234.20812 C 455.06815 231.59665 453.5467 231.01724 441.83298 229.20467 C 439.29477 228.81171 437.21693 227.98331 437.21693 227.36378 C 437.21693 226.74425 439.29477 226.16602 441.83298 226.07869 C 450.60965 225.77896 435.17847 224.09384 422.44554 223.96167 C 408.96541 223.82242 404.05023 222.21282 413.36236 220.9891 C 422.17104 219.83028 443.57847 218.44017 456.41358 218.19236 C 465.94605 218.00827 467.91679 218.30211 469.68198 220.1725 M 91.01251 220.02381 C 87.79727 220.26691 82.53373 220.26691 79.31849 220.02381 C 76.10325 219.78072 78.73379 219.58129 85.1655 219.58129 C 91.59721 219.58129 94.22775 219.78072 91.01251 220.02381 M 340.89516 222.36151 C 339.03397 222.63174 335.98614 222.63174 334.12494 222.36151 C 332.26375 222.09128 333.78643 221.8706 337.51005 221.8706 C 341.23367 221.8706 342.75636 222.09128 340.89516 222.36151 M 450.75737 222.69665 C 450.75737 223.34568 452.10895 223.8767 453.76211 223.8767 C 455.41528 223.8767 457.10906 223.34568 457.52759 222.69665 C 457.97196 222.00867 456.72008 221.51659 454.52284 221.51659 C 452.45238 221.51659 450.75737 222.04761 450.75737 222.69665 M 425.8725 230.64316 C 422.67819 230.88507 417.13892 230.88743 413.56301 230.64788 C 409.98587 230.40951 412.59794 230.21126 419.36816 230.20772 C 426.13838 230.20536 429.06558 230.40007 425.8725 230.64316 M 459.06627 230.61012 C 460.59019 230.89097 463.08163 230.89097 464.60554 230.61012 C 466.12946 230.32808 464.88251 230.09797 461.83591 230.09797 C 458.78931 230.09797 457.54236 230.32808 459.06627 230.61012 M 352.00202 248.22839 C 354.62763 248.90339 354.66579 249.04617 352.61749 250.53541 C 351.00987 251.70485 345.89282 252.09309 333.20173 252.00694 C 317.45543 251.90192 316.71194 251.80515 324.58509 250.88471 C 329.32424 250.33126 334.86351 249.38367 336.89458 248.77948 C 341.27676 247.47552 348.10237 247.22652 352.00202 248.22839 M 138.84226 362.73184 C 139.09215 373.00779 139.53775 385.92825 139.83318 391.44503 C 140.32063 400.55508 140.26524 400.88077 139.23001 394.9852 C 138.60346 391.41552 137.53746 385.93179 136.86167 382.79992 C 135.09649 374.60795 135.22081 341.01404 137.01061 342.72985 C 137.86735 343.55117 138.55914 351.10472 138.84226 362.73184 M 371.44239 366.35698 C 371.6135 377.23476 372.05171 389.85195 372.41608 394.39517 L 373.07833 402.65558 L 371.25775 394.9852 C 368.07944 381.59744 367.40734 343.00952 370.40224 345.8806 C 370.80353 346.26412 371.27129 355.4792 371.44239 366.35698 M 146.93945 393.50541 C 149.00005 411.3715 149.43089 419.80065 148.4449 423.00805 C 147.60908 425.72927 147.28657 424.91621 146.46307 417.99634 C 144.88992 404.79031 143.90516 382.51316 144.93792 383.47491 C 145.45738 383.95991 146.35844 388.47364 146.93945 393.50541 M 378.61513 386.23153 C 379.70083 388.94448 379.53342 421.50348 378.43911 420.45795 C 377.29925 419.36875 375.97844 384.35877 377.07645 384.36231 C 377.5122 384.36349 378.204 385.20488 378.61513 386.23153 M 390.4224 407.01118 C 390.43348 416.52953 389.93494 423.4671 389.20991 423.89664 C 388.40857 424.37102 387.98512 418.11081 387.99743 405.97037 C 388.01097 393.49007 388.41103 387.90013 389.20991 389.08491 C 389.86601 390.05846 390.41132 398.12534 390.4224 407.01118 M 156.19864 396.46027 C 155.90445 397.92119 155.66441 396.72579 155.66441 393.80514 C 155.66441 390.8845 155.90445 389.6891 156.19864 391.15001 C 156.49161 392.61092 156.49161 394.99936 156.19864 396.46027 M 396.7187 426.55177 C 396.651 429.30957 397.14953 431.56702 397.82656 431.56702 C 399.24584 431.56702 399.24584 428.7337 397.82656 424.48667 C 396.98951 421.98022 396.8221 422.29176 396.7187 426.55177 M 157.91828 447.43881 C 157.82473 451.74602 158.15339 452.93316 159.16892 451.95961 C 160.14876 451.02028 160.18569 449.33752 159.29571 446.11832 L 158.0463 441.59752 L 157.91828 447.43881" fill-rule="evenodd" style="fill: rgb(145, 145, 145);"/>
</svg>