<?xml version="1.0" encoding="utf-8"?>
<svg id="svg" version="1.1" width="532px" height="532px" viewBox="0 0 532 532" xmlns="http://www.w3.org/2000/svg">
  <path d="M 208.46348 9.61191 C 208.16348 10.09791 205.32448 10.81891 202.15548 11.21491 C 198.98648 11.61091 195.26848 12.49891 193.89248 13.18891 C 192.51648 13.87891 189.81648 14.73991 187.89148 15.10291 C 183.95248 15.84591 177.76848 18.13791 163.89148 23.99891 C 145.38448 31.81591 124.49948 43.75391 112.39148 53.43591 C 110.74148 54.75491 106.69148 57.80091 103.39148 60.20491 C 95.69648 65.80891 66.59248 95.39091 61.06148 103.22891 C 58.73248 106.52891 54.34748 112.92591 51.31848 117.44491 C 48.28848 121.96391 45.31348 125.96791 44.70848 126.34191 C 44.10348 126.71591 40.25148 127.35091 36.15048 127.75291 C 27.50648 128.59891 25.52848 130.02491 22.71348 137.43491 C 19.82548 145.03991 20.25348 147.91991 24.89148 152.10991 C 27.09148 154.09791 28.89148 156.39091 28.89148 157.20591 C 28.89148 158.02091 27.14048 163.08491 25.00048 168.45891 C 20.08748 180.79791 18.12348 186.68091 16.39848 194.22891 C 15.64448 197.52891 14.57248 202.02891 14.01648 204.22891 C 10.72948 217.23391 8.2946 218.35379 7.9566 262.15779 C 7.7236 292.37979 10.19248 309.38591 10.89548 310.23391 C 11.47048 310.92691 12.32148 314.35891 12.78748 317.86091 C 15.84748 340.85291 29.95248 377.66691 45.65648 403.64391 C 56.28248 421.22091 64.35448 431.29791 81.83848 448.81191 C 91.49248 458.48191 102.31648 468.47891 105.89148 471.02691 C 123.20248 483.36391 140.05648 493.90891 148.39148 497.61791 C 149.49148 498.10791 153.76648 500.09691 157.89148 502.03791 C 168.62748 507.09191 172.21048 508.49491 182.89148 511.82791 C 197.84348 516.49391 202.04048 517.58491 207.35148 518.18691 C 210.07848 518.49491 212.75648 519.19391 213.30148 519.73891 C 213.92648 520.36391 230.84967 523.28006 259.27967 523.27106 C 295.95967 523.25906 305.13448 520.43091 308.39148 519.25791 C 310.59148 518.46491 313.84448 517.79691 315.62048 517.77291 C 317.39648 517.74891 321.67148 516.86191 325.12048 515.80291 C 337.75548 511.92291 347.49948 508.79491 351.89148 507.20791 C 357.37648 505.22591 378.43448 495.06291 381.89148 492.72891 C 383.26648 491.80091 389.11648 487.95991 394.89148 484.19291 C 405.75248 477.10791 428.14848 457.98591 432.12048 452.40591 C 433.36448 450.65891 436.88548 446.46691 439.94448 443.08991 C 444.90748 437.61391 460.39448 415.42691 464.00748 408.61991 C 471.05048 395.34691 475.06848 387.21991 477.29948 381.72891 C 478.75248 378.15391 480.33348 374.52191 480.81348 373.65791 C 483.76748 368.33191 492.86248 341.63791 495.43948 330.72891 C 496.15448 327.70391 497.20748 323.42891 497.78148 321.22891 C 500.87648 309.35791 502.23448 302.33391 503.00248 294.22891 C 503.47148 289.27891 504.53848 282.43691 505.37348 279.02291 C 507.17148 271.67291 507.48148 235.67791 505.80248 229.22891 C 505.22948 227.02891 504.16548 220.72891 503.43848 215.22891 C 501.65548 201.75191 497.03348 183.00391 493.25948 173.94491 C 491.17248 168.93391 491.54848 166.95791 494.92448 165.21191 C 498.28048 163.47591 498.24248 163.29891 493.16948 156.97891 C 491.27648 154.62091 488.89648 152.72891 487.82448 152.72891 C 485.62348 152.72891 481.89148 149.38591 481.89148 147.41491 C 481.89148 146.39191 485.50448 146.04691 498.14148 145.86191 C 510.43748 145.68191 514.93848 145.26591 516.64148 144.15391 C 519.43848 142.32591 519.61448 138.18691 516.95748 136.76391 C 515.81748 136.15391 507.18748 135.72891 495.95748 135.72891 C 474.59848 135.72891 475.64948 136.05891 470.37348 127.69991 C 464.43348 118.29091 452.07248 103.09691 443.04548 94.11191 C 423.06248 74.21791 384.87348 48.05391 375.42848 47.78491 C 374.34948 47.75391 369.84948 45.96391 365.42848 43.80691 C 354.93248 38.68591 342.99148 34.03091 329.62048 29.84691 C 321.56148 27.32591 321.44448 27.31891 319.55148 29.21091 C 316.48548 32.27791 319.33348 36.13491 326.89148 39.14791 C 337.81948 43.50491 341.23148 45.34391 343.59648 48.15391 C 344.98348 49.80391 345.64448 51.31091 345.06448 51.50491 C 344.48448 51.69791 341.17048 50.64691 337.70048 49.16791 C 323.56548 43.14591 318.62748 41.77591 313.26848 42.38891 C 309.74048 42.79191 306.54048 42.44091 302.98748 41.26091 C 299.30648 40.03791 296.19048 39.71991 292.11048 40.14791 C 285.08048 40.88591 283.76948 40.88691 271.89148 40.16591 C 261.07848 39.50891 258.07548 40.58291 259.36548 44.64591 C 260.12848 47.04991 265.28048 49.72891 269.14148 49.72891 C 270.41448 49.72891 273.91648 50.42391 276.92348 51.27291 C 279.93048 52.12191 285.31648 53.42791 288.89148 54.17391 C 292.46648 54.92091 298.54148 56.73291 302.39148 58.20191 C 306.24148 59.67091 310.96648 61.33691 312.89148 61.90491 C 314.81648 62.47191 316.84148 63.28891 317.39148 63.71991 C 317.94148 64.15091 321.54148 65.73491 325.39148 67.23891 C 337.15348 71.83591 351.05948 79.13291 363.17548 87.06591 C 377.54748 96.47691 400.49648 115.19991 406.71148 122.58591 C 409.28548 125.64591 413.86148 130.79491 416.87948 134.02891 L 422.36848 139.90991 L 382.37948 139.32491 C 360.38648 139.00291 341.49148 138.75291 340.39148 138.76891 C 327.55848 138.95491 322.80548 138.73091 317.56048 137.69391 C 312.76748 136.74591 306.26148 136.72591 288.39148 137.60691 C 254.98748 139.25291 240.01848 139.10491 235.26348 137.07991 C 231.84348 135.62391 224.73748 135.40191 174.39148 135.17591 C 125.40448 134.95591 116.70148 134.69591 112.48248 133.32491 C 109.20348 132.25891 103.89148 131.72491 96.48248 131.71791 C 90.38248 131.71191 83.69248 131.42591 81.61648 131.08291 C 78.36948 130.54591 77.92448 130.16391 78.43148 128.34391 C 79.01848 126.23991 82.98048 116.49891 85.18948 111.72891 C 85.82648 110.35391 94.06948 101.35391 103.50648 91.72891 C 112.94448 82.10391 121.58248 72.42891 122.70148 70.22891 C 123.82148 68.02891 127.58448 63.49791 131.06448 60.15891 C 137.39948 54.08191 153.89448 41.72891 155.67548 41.72891 C 156.19548 41.72891 157.69448 40.93691 159.00648 39.96891 C 161.06648 38.44791 173.91048 32.25191 183.39148 28.20491 C 189.58348 25.56091 196.62948 23.51991 204.08748 22.20991 C 208.32048 21.46591 212.74548 20.34191 213.92148 19.71291 C 215.19848 19.02991 224.73448 18.28191 237.59748 17.85691 C 258.50348 17.16591 259.19148 17.07691 261.01348 14.82591 C 262.04648 13.55091 262.89148 11.65691 262.89148 10.61791 C 262.89148 8.81291 261.69848 8.72891 235.95048 8.72891 C 221.13248 8.72891 208.76348 9.12591 208.46348 9.61191 M 492.89148 150.47491 C 492.89148 150.95891 494.26948 152.67691 495.95448 154.29191 C 498.92348 157.13891 499.36648 157.23891 510.45448 157.56491 L 521.89148 157.90091 L 521.89148 154.81491 L 521.89148 151.72891 L 515.64148 151.54691 C 512.20448 151.44591 506.69148 151.29491 503.39148 151.21091 C 500.09148 151.12591 496.37948 150.72791 495.14148 150.32591 C 493.90348 149.92291 492.89148 149.98991 492.89148 150.47491 M 441.82648 176.15091 C 445.55148 180.63891 453.96348 210.08791 451.73848 210.84691 C 451.54748 210.91191 441.65048 211.24991 429.74548 211.59691 C 410.89248 212.14691 407.84448 212.45991 406.11948 214.02191 C 404.32248 215.64891 404.08048 215.66391 403.51548 214.18991 C 402.37048 211.20691 402.87248 205.79291 404.83348 199.98291 C 405.90148 196.81791 407.08148 191.61591 407.45548 188.42191 C 408.26448 181.51891 409.76648 180.18891 418.50148 178.63291 C 421.74148 178.05591 427.09148 176.99191 430.39148 176.26891 C 438.47348 174.49691 440.43648 174.47591 441.82648 176.15091 M 70.12948 181.72891 C 71.22548 181.72891 73.75848 183.49991 75.75748 185.66391 C 79.27848 189.47691 79.68748 189.63491 88.89148 190.72891 C 106.09448 192.77391 111.30348 192.94591 118.89148 191.72191 C 131.32948 189.71491 135.02548 189.46291 136.11048 190.54791 C 136.82448 191.26191 135.88048 191.92391 133.07248 192.67991 C 128.20248 193.99191 125.29848 197.36091 124.38648 202.75791 C 123.74248 206.56891 123.56348 206.72891 119.92548 206.72891 C 117.84148 206.72891 114.45348 206.02591 112.39748 205.16691 C 109.37348 203.90291 105.25248 203.66491 90.80848 203.91691 C 70.63448 204.26991 70.32248 204.38191 68.74248 211.88091 C 66.40848 222.96091 66.46948 224.25691 69.45548 227.02491 C 70.99048 228.44891 74.00948 229.91091 76.16548 230.27491 C 79.80648 230.88991 80.03748 231.12591 79.41648 233.58291 C 77.70448 240.36391 77.73048 242.27391 79.55848 243.91791 C 82.12648 246.22691 94.09448 252.45891 100.72948 254.94091 C 103.78748 256.08591 108.33848 258.91491 110.84048 261.22791 C 113.48248 263.66991 116.81948 265.70891 118.79648 266.08791 C 124.61148 267.20291 124.89148 267.85791 124.89148 280.31691 C 124.89148 286.55591 125.53448 296.51291 126.31948 302.44491 C 127.10548 308.37591 128.03148 322.45391 128.37748 333.72891 C 128.72948 345.18091 129.61648 356.87691 130.38748 360.22891 C 131.14748 363.52891 132.04748 370.27891 132.38848 375.22891 C 132.72948 380.17891 133.84748 386.92891 134.87448 390.22891 C 137.86348 399.83791 140.74448 409.66491 142.93748 417.72891 C 144.05948 421.85391 145.66148 426.82891 146.49848 428.78491 C 147.33548 430.74091 148.55648 434.75491 149.21148 437.70391 C 150.23748 442.32491 150.81548 443.20091 153.39648 444.04691 C 157.12748 445.26991 158.06448 446.57791 157.35848 449.57491 C 157.05448 450.86491 157.32948 452.55191 157.97048 453.32491 C 161.46848 457.53891 150.59148 452.23291 139.75648 444.43991 C 135.00748 441.02391 128.93248 436.66291 126.25648 434.74891 C 114.08648 426.04491 91.47548 400.98491 80.21948 383.72891 C 73.41948 373.30191 61.02248 349.56991 58.80248 342.72891 C 58.35648 341.35391 56.80748 337.07891 55.35948 333.22891 C 53.91248 329.37891 52.27248 324.65391 51.71548 322.72891 C 51.15948 320.80391 49.84548 316.40691 48.79748 312.95791 C 47.74948 309.50891 46.89148 305.40291 46.89148 303.83391 C 46.89148 302.26391 46.11748 299.01091 45.17148 296.60491 C 43.68448 292.82391 43.45348 288.35091 43.46848 263.72891 C 43.48348 239.29691 43.72948 234.60391 45.18848 230.85291 C 46.12548 228.44691 46.91148 224.62191 46.93548 222.35291 C 46.95948 220.08491 47.64948 216.42891 48.46848 214.22891 C 49.28748 212.02891 50.38548 207.75391 50.90848 204.72891 C 51.43048 201.70391 52.50248 197.87891 53.29048 196.22891 C 54.07848 194.57891 55.20448 191.42891 55.79248 189.22891 C 56.37948 187.02891 57.76548 183.75891 58.87048 181.96291 L 60.88148 178.69791 L 64.50848 180.21291 C 66.50348 181.04691 69.03248 181.72891 70.12948 181.72891 M 355.89148 186.97891 C 355.89248 187.66691 353.55248 190.29191 350.69248 192.81391 L 345.49348 197.39891 L 344.77948 205.70091 C 344.33548 210.86891 343.56148 214.32091 342.72848 214.84591 C 340.93548 215.97691 309.56848 214.98791 304.57748 213.64391 C 302.40348 213.05891 296.64948 212.72391 291.79048 212.90091 C 279.36448 213.35091 278.90748 212.80691 281.81848 201.02391 C 283.02348 196.14591 284.41648 191.49691 284.91248 190.69191 C 285.57648 189.61591 289.06248 189.01591 298.10348 188.42091 C 341.69048 185.55591 355.89148 185.20091 355.89148 186.97891 M 226.85348 191.00391 C 228.62948 191.90291 229.97848 194.19791 231.69448 199.23991 C 234.43048 207.27591 236.77948 210.25891 242.37148 212.80391 C 245.69648 214.31591 246.04548 214.73291 244.49048 215.32891 C 243.33948 215.77091 241.05748 215.23491 238.51048 213.92391 C 232.91248 211.04391 213.86448 209.20291 204.82948 210.66891 C 197.09148 211.92491 186.89948 212.01991 185.06048 210.85491 C 182.86548 209.46291 183.29548 199.81791 185.76748 194.97191 L 187.90248 190.78691 L 201.14748 190.47591 C 208.43148 190.30591 216.64148 190.07391 219.39148 189.96191 C 222.14148 189.84991 225.49948 190.31891 226.85348 191.00391 M 455.32048 222.29991 C 456.99548 223.97591 457.46948 229.25391 456.02548 230.14591 C 455.54848 230.44091 454.33548 229.77191 453.32848 228.65991 C 451.65648 226.81191 450.71548 226.69191 442.44448 227.27591 C 434.55548 227.83291 432.81248 227.64891 428.89148 225.84391 C 426.20948 224.60991 422.29348 223.76391 419.20048 223.75091 C 416.34548 223.73891 413.68748 223.20791 413.29348 222.57091 C 412.75848 221.70491 415.83148 221.56791 425.48448 222.02491 C 432.58348 222.36191 440.19148 222.25991 442.39148 221.79791 C 448.94648 220.42291 453.62448 220.60491 455.32048 222.29991 M 456.79048 238.85491 C 456.88948 242.77491 457.62748 247.55491 458.43048 249.47691 C 460.15848 253.61191 460.42948 270.18391 458.83748 274.37091 C 458.25748 275.89591 457.34748 280.61991 456.81448 284.86791 C 456.28248 289.11691 455.23448 294.08591 454.48648 295.91091 C 453.73948 297.73591 452.81248 302.82891 452.42748 307.22891 C 451.33548 319.69991 442.21948 344.93491 429.66348 370.24691 C 420.99948 387.71291 412.06648 402.59091 406.85648 408.23191 C 405.83948 409.33391 403.82348 412.82091 402.37548 415.98191 C 400.92848 419.14291 399.35748 421.72891 398.88348 421.72891 C 398.40948 421.72891 398.25348 417.49391 398.53748 412.31691 C 398.89648 405.74591 398.60248 401.14291 397.56248 397.06691 C 396.36948 392.39291 396.14948 385.84591 396.45848 364.22891 C 396.67148 349.37891 397.27248 334.75391 397.79548 331.72891 C 398.31748 328.70391 398.77848 317.31191 398.81848 306.41291 C 398.87948 289.79291 399.23748 285.13991 401.03748 277.56591 C 402.90648 269.70591 403.02548 267.93191 401.96048 263.88191 C 399.92148 256.12791 399.61348 252.76891 400.80848 251.32891 C 401.43548 250.57391 404.97248 249.64391 408.66948 249.26291 C 416.12348 248.49391 427.39948 245.74991 433.10948 243.31491 C 435.15448 242.44291 438.97948 241.72191 441.60948 241.71391 C 448.17548 241.69291 449.19548 240.86491 448.33048 236.25691 L 447.62448 232.49291 L 451.75848 232.88791 C 454.03148 233.10391 455.89148 232.93191 455.89148 232.50491 C 455.89148 232.07791 456.05348 231.72891 456.25148 231.72891 C 456.44848 231.72891 456.69148 234.93591 456.79048 238.85491 M 344.89148 270.40991 C 344.89148 276.21891 345.53148 285.52991 346.31448 291.10091 C 347.09648 296.67091 348.02048 311.80391 348.36848 324.72891 C 348.73248 338.27391 349.56748 350.77091 350.34048 354.22891 C 351.07748 357.52891 352.00348 365.17891 352.39748 371.22891 C 352.79148 377.27891 353.72648 383.80391 354.47548 385.72891 C 355.22448 387.65391 356.46648 392.15391 357.23548 395.72891 C 358.00448 399.30391 360.01748 406.27891 361.70848 411.22891 C 363.39948 416.17891 365.22448 422.02891 365.76448 424.22891 C 366.30448 426.42891 367.71848 431.04191 368.90748 434.47891 C 371.06048 440.70591 372.24348 441.62091 377.14148 440.84691 C 377.55448 440.78191 377.89148 441.13291 377.89148 441.62791 C 377.89148 442.12191 375.07948 443.97491 371.64148 445.74591 C 368.20448 447.51691 364.71648 449.52691 363.89148 450.21191 C 362.06448 451.72991 337.49048 463.72891 336.20848 463.72891 C 335.70548 463.72891 331.26648 465.52191 326.34248 467.71391 C 321.41948 469.90491 315.98548 471.70491 314.26748 471.71391 C 312.54848 471.72191 309.22148 472.40691 306.87348 473.23491 C 304.52548 474.06391 299.40648 475.01191 295.49748 475.34291 C 291.58948 475.67391 285.91648 476.66191 282.89148 477.53791 C 274.89748 479.85391 233.79148 479.86591 225.89148 477.55491 C 222.86648 476.66991 217.46648 475.69791 213.89148 475.39491 C 210.31648 475.09191 205.81648 474.19891 203.89148 473.40991 C 201.96648 472.62091 198.26448 471.66891 195.66448 471.29391 C 193.06548 470.91991 190.68348 470.20191 190.37248 469.69791 C 190.06148 469.19491 187.91348 468.29491 185.59948 467.69791 C 183.28548 467.09991 180.04148 466.02891 178.39148 465.31691 C 176.74148 464.60491 172.35248 462.76291 168.63848 461.22391 C 164.92448 459.68491 161.32448 457.70691 160.63848 456.82791 C 159.55548 455.43991 159.60548 455.39591 161.01348 456.49491 C 162.41848 457.59191 162.71948 457.34091 163.26348 454.61991 C 164.17048 450.08191 164.03548 439.52191 163.07748 440.11391 C 161.83848 440.87991 163.35948 431.69391 165.12848 427.72891 C 165.98648 425.80391 167.16448 423.10391 167.74548 421.72891 C 168.58048 419.75391 168.76348 421.11791 168.61848 428.22891 C 168.38648 439.61891 169.71248 451.56491 171.53248 454.47891 C 173.15648 457.07991 176.08248 457.40891 177.91848 455.19691 C 179.96948 452.72491 179.39348 410.91991 177.20048 403.17091 C 175.76748 398.10391 175.55548 392.83491 175.76548 367.38591 C 175.90048 350.97291 176.43448 336.43091 176.95148 335.07091 C 177.46848 333.71091 177.89048 323.74091 177.89048 312.91391 C 177.88848 292.75091 180.07348 270.42491 182.28348 268.02491 C 183.08348 267.15591 192.85248 266.64991 217.39148 266.20491 C 236.09148 265.86591 266.96248 264.71991 285.99248 263.65891 C 305.02348 262.59691 324.37348 261.70891 328.99248 261.68391 C 333.64548 261.65891 338.72948 261.05191 340.39148 260.32291 C 342.04148 259.59891 343.72848 259.19591 344.14148 259.42691 C 344.55448 259.65791 344.89148 264.59991 344.89148 270.40991 M 389.89148 424.60191 C 389.89148 425.84091 385.84048 434.97291 384.60248 436.52591 C 383.75448 437.58891 383.41948 437.58891 382.74548 436.52591 C 380.94548 433.68891 381.89548 429.82591 385.14148 426.78391 C 388.44148 423.69191 389.89148 423.02491 389.89148 424.60191" stroke="none" fill-rule="evenodd" style="fill: rgb(255, 255, 255);"/>
</svg>